<svg xmlns="http://www.w3.org/2000/svg" width="156" height="48" fill="none" viewBox="0 0 156 48">
    <path fill="#fff" d="M38.764 31.354l2.83-23.34h5.87l-2.835 23.34h-5.865zM41.792 5.621L42.566 0h6.002l-.775 5.621h-6.001zM110.736 5.621L111.512 0h6l-.775 5.621h-6.001zM64.81 5.561l-3.198 25.793H55.34L58.54 5.56h-8.394L50.82 0h23.06l-.68 5.561h-8.39z"/>
    <path fill="#fff" d="M71.353 21.5c-.368 3 1.218 5.195 4.51 5.195 2.577 0 3.433-1.056 5.098-2.534l4.257 2.088c-2.698 3.782-5.753 5.375-9.999 5.375-5.546 0-10.567-2.508-9.418-11.964.92-7.615 5.6-11.914 11.69-11.914 6.54 0 8.803 4.403 8.807 10.779 0 1.242-.184 2.983-.184 2.983L71.353 21.5zm9.181-6.5c-.462-1.382-1.645-2.416-3.633-2.416-.858-.016-1.704.201-2.447.627-.743.426-1.355 1.044-1.77 1.79-.44.777-.725 1.63-.842 2.512h8.933c.096-.845.014-1.7-.24-2.512z"/>
    <path fill="#fff" d="M98.985 31.354l-3.484-6.99-5.138 6.99h-7.04l9.569-11.92-6.417-11.42h7.039l3.162 6.676 4.825-6.675h7.041l-9.202 11.42 6.673 11.919h-7.028zM107.57 31.354l2.834-23.34h5.865l-2.835 23.34h-5.864zM125.902 31.624c-4.691 0-10.21-2.508-9.062-11.964 1.148-9.457 7.267-11.914 11.962-11.914 3.245 0 5.862.793 7.897 3.61l-4.969 3.471c-1.062-1.293-2.024-1.827-3.566-1.827-.664-.012-1.322.118-1.931.38-.608.263-1.153.653-1.596 1.144-1.039 1.118-1.636 2.69-1.932 5.148-.296 2.46-.09 4.074.677 5.2.737 1.03 1.754 1.523 3.155 1.523 1.535 0 2.637-.548 4.013-1.84l3.959 3.45c-2.276 2.687-5.357 3.62-8.607 3.62z"/>
    <path fill="#fff" d="M151.712 28.754c-1.63 1.525-4.185 2.87-7.657 2.87-3.473 0-5.656-1.345-6.916-2.87-1.857-2.192-2.076-4.838-1.561-9.095.512-4.201 1.373-6.85 3.762-9.048 1.632-1.524 4.14-2.865 7.617-2.865 3.476 0 5.705 1.341 6.96 2.865 1.855 2.192 2.074 4.84 1.568 9.049-.525 4.256-1.38 6.9-3.773 9.094zm-2.76-14.736c-.595-.674-1.45-1.03-2.623-1.03-1.044-.035-2.062.335-2.837 1.03-1.362 1.208-1.745 3.226-2.04 5.642-.294 2.415-.406 4.48.663 5.69.596.67 1.413 1.033 2.586 1.033 1.056.031 2.085-.338 2.878-1.033 1.364-1.21 1.75-3.266 2.043-5.69.292-2.425.393-4.434-.67-5.642zM.622 4.662s.325 8.545 3.402 25.097H18.06s-1.322-4.547-1.322-5.33c0 0-10.112-14.744-11.851-16.785C3.146 5.604 1.019 3.64.622 4.662z"/>
    <path fill="#fff" d="M1.017 3.41s.79-1.335 5.847 5.568c5.057 6.902 14.301 20.078 16.747 23.37 2.446 3.292 8.414 10.649 9.54 12.067 1.127 1.417 2.15 2.682 4.443 2.998 2.293.316 6.936 1.279 13.618-.265 0 0-2.716-1.153-5.878-4.606s-9.636-11.919-15.482-20.23c-5.847-8.31-13.27-17.882-13.667-18.428-.397-.546-1.106-1.573-2.681-1.874-1.575-.302-8.697-1.107-12.487 1.4z"/>
    <path fill="#fff" d="M45.97 42.233s3.634 3.762 6.398 4.467c0 0 5.602-1.014 11.572-12.896l-11.482-.039s-2.775 4.937-6.489 8.468z"/>
</svg>
