<svg width="15" height="14" viewBox="0 0 15 14" fill="none" xmlns="http://www.w3.org/2000/svg">
<path d="M12.8144 5.83325C12.8144 9.91658 7.56439 13.4166 7.56439 13.4166C7.56439 13.4166 2.31439 9.91658 2.31439 5.83325C2.31439 4.44087 2.86752 3.10551 3.85208 2.12094C4.83665 1.13638 6.17201 0.583252 7.56439 0.583252C8.95678 0.583252 10.2921 1.13638 11.2767 2.12094C12.2613 3.10551 12.8144 4.44087 12.8144 5.83325Z" stroke="#616061" stroke-linecap="round" stroke-linejoin="round"/>
<path d="M7.56439 7.58325C8.53089 7.58325 9.31439 6.79975 9.31439 5.83325C9.31439 4.86675 8.53089 4.08325 7.56439 4.08325C6.59789 4.08325 5.81439 4.86675 5.81439 5.83325C5.81439 6.79975 6.59789 7.58325 7.56439 7.58325Z" stroke="#616061" stroke-linecap="round" stroke-linejoin="round"/>
</svg>
