<svg width="25" height="24" viewBox="0 0 25 24" fill="none" xmlns="http://www.w3.org/2000/svg">
<path d="M16.3196 8C17.9226 8 19.4599 8.63214 20.5933 9.75736C21.7268 10.8826 22.3636 12.4087 22.3636 14V21H18.3343V14C18.3343 13.4696 18.122 12.9609 17.7442 12.5858C17.3664 12.2107 16.8539 12 16.3196 12C15.7853 12 15.2729 12.2107 14.895 12.5858C14.5172 12.9609 14.305 13.4696 14.305 14V21H10.2756V14C10.2756 12.4087 10.9124 10.8826 12.0459 9.75736C13.1793 8.63214 14.7166 8 16.3196 8V8Z" stroke="white" stroke-width="2" stroke-linecap="round" stroke-linejoin="round"/>
<path d="M6.2463 9H2.21698V21H6.2463V9Z" stroke="white" stroke-width="2" stroke-linecap="round" stroke-linejoin="round"/>
<path d="M4.23164 6C5.3443 6 6.2463 5.10457 6.2463 4C6.2463 2.89543 5.3443 2 4.23164 2C3.11897 2 2.21698 2.89543 2.21698 4C2.21698 5.10457 3.11897 6 4.23164 6Z" stroke="white" stroke-width="2" stroke-linecap="round" stroke-linejoin="round"/>
</svg>
