<svg width="25" height="24" viewBox="0 0 25 24" fill="none" xmlns="http://www.w3.org/2000/svg">
<g clip-path="url(#clip0)">
<path d="M23.195 3.00005C22.2304 3.67552 21.1623 4.19216 20.032 4.53005C19.4253 3.83756 18.619 3.34674 17.7222 3.12397C16.8254 2.90121 15.8813 2.95724 15.0176 3.2845C14.1539 3.61176 13.4123 4.19445 12.893 4.95376C12.3738 5.71308 12.102 6.61238 12.1144 7.53005V8.53005C10.3441 8.57561 8.59 8.18586 7.00823 7.39549C5.42646 6.60513 4.06613 5.43868 3.04841 4.00005C3.04841 4.00005 -0.980905 13 8.08505 17C6.01049 18.398 3.53914 19.099 1.03375 19C10.0997 24 21.1803 19 21.1803 7.50005C21.1794 7.2215 21.1524 6.94364 21.0997 6.67005C22.1278 5.66354 22.8533 4.39276 23.195 3.00005V3.00005Z" stroke="white" stroke-width="2" stroke-linecap="round" stroke-linejoin="round"/>
</g>
<defs>
<clipPath id="clip0">
<rect width="24.1759" height="24" fill="white" transform="translate(0.0264282)"/>
</clipPath>
</defs>
</svg>
