<svg width="57" height="65" viewBox="0 0 57 65" fill="none" xmlns="http://www.w3.org/2000/svg">
<path d="M56.5151 32.5723C56.5151 36.9381 56.5151 41.3039 56.5151 45.6696C56.5151 48.4479 55.3244 50.2339 53.1415 51.4245C50.5617 52.8136 48.1804 54.4012 45.7991 55.7903C43.4177 57.1794 40.838 58.767 38.4566 60.1561C36.2738 61.3467 34.2893 62.5374 32.1064 63.9265C30.5189 64.9187 28.9313 65.3156 27.1453 64.7203C26.3515 64.5218 25.5578 63.9265 24.764 63.5296C20.1998 60.7514 15.6356 58.1716 11.0713 55.3934C8.49156 53.8058 5.91178 52.4167 3.33201 50.8292C1.9429 50.0354 0.950684 48.8447 0.950684 47.0588C0.950684 45.8681 0.950684 44.6774 0.950684 43.6852C0.950684 35.549 0.950684 27.6112 0.950684 19.475C0.950684 16.8952 2.14134 15.1092 4.32423 13.9186C7.49934 12.1326 10.6744 10.1481 13.8496 8.16369C16.6278 6.57614 19.406 4.79014 22.1842 3.20258C23.5733 2.40881 24.9624 1.41658 26.3515 0.622803C27.7406 -0.170973 29.3282 -0.17097 30.9158 0.424362C33.2971 1.81347 35.6784 3.20258 38.0597 4.59169C40.4411 5.9808 42.8224 7.36991 45.2037 8.95746C48.1804 10.7435 51.1571 12.5295 53.9353 14.3155C55.5228 15.3077 56.3166 16.8952 56.3166 18.8797C56.3166 22.0548 56.3166 25.0314 56.3166 28.2065C56.5151 29.5957 56.5151 30.9848 56.5151 32.5723Z" fill="url(#paint0_linear)"/>
<path d="M27.9391 44.4791C21.3904 44.4791 16.0324 39.1211 16.0324 32.5724C16.0324 26.0238 21.3904 20.6658 27.9391 20.6658C34.4877 20.6658 39.8457 26.0238 39.8457 32.5724C39.8457 39.1211 34.6862 44.4791 27.9391 44.4791ZM27.9391 21.2611C21.7873 21.2611 16.8262 26.2222 16.8262 32.374C16.8262 38.5257 21.7873 43.4869 27.9391 43.4869C34.0908 43.4869 39.0519 38.5257 39.0519 32.374C39.0519 26.2222 34.0908 21.2611 27.9391 21.2611Z" fill="white"/>
<path d="M27.9391 42.2961C22.5811 42.2961 18.0168 37.9303 18.0168 32.3739C18.0168 26.8174 22.3826 22.4517 27.9391 22.4517C33.297 22.4517 37.8613 26.8174 37.8613 32.3739C37.8613 37.9303 33.4955 42.2961 27.9391 42.2961ZM27.9391 23.4439C22.978 23.4439 18.8106 27.4128 18.8106 32.5723C18.8106 37.7319 22.7795 41.7007 27.9391 41.7007C32.9002 41.7007 37.0675 37.7319 37.0675 32.5723C37.0675 27.4128 32.9002 23.4439 27.9391 23.4439Z" fill="white"/>
<path d="M30.9157 35.946L25.3593 30.3895L25.9546 29.7942L30.9157 34.7553L41.0364 24.0393L41.6317 24.6346L30.9157 35.946Z" fill="white"/>
<defs>
<linearGradient id="paint0_linear" x1="13.9426" y1="7.89579" x2="43.6914" y2="57.0458" gradientUnits="userSpaceOnUse">
<stop stop-color="#2DB499"/>
<stop offset="1" stop-color="#217FB8"/>
</linearGradient>
</defs>
</svg>
