<svg width="56" height="65" viewBox="0 0 56 65" fill="none" xmlns="http://www.w3.org/2000/svg">
<path d="M55.5644 32.5723C55.5644 36.9381 55.5644 41.3039 55.5644 45.6696C55.5644 48.4479 54.3737 50.2339 52.1908 51.4245C49.6111 52.8136 47.2297 54.4012 44.8484 55.7903C42.4671 57.1794 39.8873 58.767 37.506 60.1561C35.3231 61.3467 33.3386 62.5374 31.1557 63.9265C29.5682 64.9187 27.9806 65.3156 26.1946 64.7203C25.4009 64.5218 24.6071 63.9265 23.8133 63.5296C19.2491 60.7514 14.6849 58.1716 10.1207 55.3934C7.54088 53.8059 4.96111 52.4167 2.38133 50.8292C0.992221 50.0354 0 48.8448 0 47.0588C0 45.8681 0 44.6774 0 43.6852C0 35.549 0 27.6112 0 19.475C0 16.8952 1.19067 15.1092 3.37355 13.9186C6.54866 11.9341 9.72377 9.94968 12.8989 8.16369C15.6771 6.57613 18.4553 4.79013 21.2335 3.20258C22.6226 2.4088 24.0118 1.41658 25.4009 0.622805C26.79 -0.170972 28.3775 -0.170972 29.9651 0.424361C32.3464 1.81347 34.7277 3.20258 37.1091 4.59169C39.4904 5.9808 41.8717 7.36991 44.2531 8.95746C47.2297 10.7435 50.2064 12.5295 52.9846 14.3155C54.7706 15.3077 55.5644 16.8952 55.5644 18.8797C55.5644 22.0548 55.5644 25.0314 55.5644 28.2066C55.5644 29.5957 55.5644 31.1832 55.5644 32.5723Z" fill="url(#paint0_linear)"/>
<path d="M38.6965 23.6424L36.7121 21.8564L37.9028 20.6658C37.9028 20.6658 38.6965 20.4673 39.2919 21.0627C39.8872 21.658 39.4903 22.2533 39.4903 22.4518L38.6965 23.6424ZM37.7043 21.8564L38.4981 22.6502L39.0934 22.0549C39.0934 21.8565 39.0934 21.658 38.895 21.4596C38.4981 21.0627 38.2997 21.0627 38.1012 21.0627L37.7043 21.8564Z" fill="white"/>
<path d="M37.5059 23.8408L26.393 35.1521L24.607 35.9459L25.4008 34.1599L36.7121 22.8485L36.3152 22.4517L24.8054 33.763L23.2179 37.335L26.7899 35.7474L38.1012 24.2377L37.5059 23.8408Z" fill="white"/>
<path d="M39.4904 25.2299L38.895 25.6268C42.0701 30.7864 41.4748 37.5335 37.109 41.8992C31.9495 47.0588 23.6148 47.0588 18.4553 41.8992C13.2957 36.7397 13.2957 28.405 18.4553 23.2455C22.821 18.8797 29.7666 18.2844 34.9261 21.4595L35.323 20.8642C29.965 17.4906 22.821 18.0859 18.0584 22.8486C12.7004 28.2066 12.7004 37.1366 18.0584 42.4946C23.4164 47.8526 32.3464 47.8526 37.7044 42.4946C42.2686 37.7319 42.8639 30.5879 39.4904 25.2299Z" fill="white"/>
<defs>
<linearGradient id="paint0_linear" x1="12.9187" y1="7.97397" x2="42.6675" y2="57.124" gradientUnits="userSpaceOnUse">
<stop stop-color="#D2218A"/>
<stop offset="1" stop-color="#F05881"/>
</linearGradient>
</defs>
</svg>
