<svg width="56" height="65" viewBox="0 0 56 65" fill="none" xmlns="http://www.w3.org/2000/svg">
<path d="M55.9506 32.5723C55.9506 36.9381 55.9506 41.3039 55.9506 45.6696C55.9506 48.4479 54.7599 50.2339 52.577 51.4245C49.9973 52.8136 47.6159 54.4012 45.2346 55.7903C42.8533 57.1794 40.2735 58.767 37.8922 60.1561C35.7093 61.3467 33.7248 62.5374 31.542 63.9265C29.9544 64.9187 28.3669 65.3156 26.5809 64.7203C25.7871 64.5218 24.9933 63.9265 24.1995 63.5296C19.6353 60.7514 15.0711 58.1716 10.5069 55.3934C7.92711 53.8058 5.34733 52.4167 2.76755 50.8292C1.37845 50.0354 0.38623 48.8447 0.38623 47.0588C0.38623 45.8681 0.38623 44.6774 0.38623 43.6852C0.38623 35.549 0.38623 27.6112 0.38623 19.475C0.38623 16.8952 1.57689 15.1092 3.75978 13.9186C6.93488 12.1326 10.11 10.1481 13.2851 8.16369C16.0633 6.57614 18.8415 4.79014 21.6198 3.20258C23.0089 2.40881 24.398 1.41658 25.7871 0.622803C27.1762 -0.170973 28.7637 -0.17097 30.3513 0.424362C32.7326 1.81347 35.114 3.20258 37.4953 4.59169C39.8766 5.9808 42.2579 7.36991 44.6393 8.95746C47.6159 10.7435 50.5926 12.5295 53.3708 14.3155C54.9584 15.3077 55.7522 16.8952 55.7522 18.8797C55.7522 22.0548 55.7522 25.0314 55.7522 28.2065C55.9506 29.5957 55.9506 30.9848 55.9506 32.5723Z" fill="url(#paint0_linear)"/>
<path d="M25.5886 20.864H24.7949V21.6578H25.5886V20.864Z" fill="white"/>
<path d="M17.8493 41.5022C18.2462 42.4945 19.04 43.0898 20.0322 43.2882C20.2307 45.4711 22.0167 47.2571 24.1995 47.2571C25.5886 47.2571 26.7793 46.6618 27.5731 45.4711L27.7715 45.2727V45.4711C27.97 45.868 28.1684 46.2649 28.3669 46.4633C28.9622 46.8602 29.5575 47.0587 30.1529 47.0587C37.4953 45.868 42.6548 39.7162 42.6548 32.3738C42.6548 25.0314 37.2969 18.8796 30.1529 17.6889C29.5575 17.4905 28.7638 17.6889 28.3669 18.2843C28.1684 18.4827 27.97 18.8796 27.7715 19.078V19.2765L27.5731 19.078C26.7793 18.0858 25.7871 17.4905 24.5964 17.4905C23.2073 17.4905 22.0167 18.2843 21.4213 19.4749V19.2765V19.4749C19.4369 19.4749 17.6509 21.0625 17.6509 23.2454C17.0555 23.6423 16.4602 24.2376 16.2618 25.0314C14.8727 25.6267 13.8804 27.0158 13.8804 28.6034C13.8804 29.1987 14.0789 29.794 14.2773 30.1909C13.682 30.9847 13.4836 31.7785 13.4836 32.7707C13.4836 33.7629 13.8804 34.9536 14.6742 35.7473C14.4758 36.1442 14.4758 36.5411 14.4758 37.1365C14.0789 39.3193 15.6664 41.1053 17.8493 41.5022ZM28.5653 20.0703C28.5653 19.6734 28.7638 19.2765 29.1606 18.8796C29.5575 18.6811 29.9544 18.4827 30.3513 18.4827C37.0984 19.4749 42.258 25.6267 42.258 32.3738C42.258 39.3193 37.0984 45.2727 30.3513 46.2649H30.1529C29.756 46.2649 29.3591 46.0665 29.1606 45.868C28.7638 45.6696 28.5653 45.0742 28.5653 44.6773V20.0703ZM14.8727 34.9536C14.2773 34.3582 14.0789 33.5645 14.0789 32.7707C14.0789 31.9769 14.4758 31.1831 14.8727 30.3894L15.0711 30.1909H14.8727C14.6742 29.794 14.4758 29.1987 14.4758 28.6034C14.4758 27.6111 15.0711 26.6189 16.0633 26.0236H16.2618V26.222C16.4602 27.6111 17.6509 28.6034 18.8415 28.6034V27.8096C17.8493 27.8096 16.8571 26.8174 16.8571 25.8251C16.8571 24.6345 17.8493 23.8407 18.8415 23.8407C19.8338 23.8407 20.826 24.6345 20.826 25.8251H21.6198C21.6198 24.2376 20.4291 23.0469 18.8415 23.0469C18.6431 23.0469 18.6431 23.0469 18.4447 23.0469H18.2462V22.8485C18.4447 21.4594 19.4369 20.4671 20.826 20.2687H21.0244V20.4671C21.0244 20.864 20.826 21.0625 20.826 21.4594C20.826 23.4438 22.4135 25.2298 24.398 25.2298V24.2376C22.8104 24.2376 21.4213 22.8485 21.4213 21.2609C21.4213 19.6734 22.8104 18.2843 24.398 18.2843C25.9855 18.2843 27.3746 19.6734 27.3746 21.2609V43.0898C27.3746 45.0742 25.7871 46.6618 23.8026 46.6618C21.8182 46.6618 20.2307 45.0742 20.2307 43.0898C20.2307 41.1053 21.8182 39.7162 23.6042 39.5178V38.724C21.6198 38.724 19.8338 40.3116 19.4369 42.296V42.4945H19.2384C18.2462 42.0976 17.6509 41.1053 17.6509 40.1131C17.6509 38.724 18.6431 37.7318 20.0322 37.5333V36.7396C18.2462 36.7396 16.8571 38.3271 16.8571 40.1131C16.8571 40.3116 16.8571 40.3116 16.8571 40.51V40.7085H16.6587C15.2695 40.3116 14.0789 38.9225 14.0789 37.3349C14.0789 35.3505 15.6664 33.9613 17.4524 33.7629V32.9691C16.8571 32.9691 15.6664 33.7629 14.8727 34.9536Z" fill="white"/>
<path d="M31.542 29.5956H29.756V30.3894H31.542C32.3357 30.3894 32.9311 29.794 32.9311 29.0003V25.6267H32.1373V29.0003C32.1373 29.3972 31.7404 29.5956 31.542 29.5956Z" fill="white"/>
<path d="M32.5342 21.8562C31.7404 21.8562 31.1451 22.4515 31.1451 23.2453C31.1451 24.0391 31.7404 24.6344 32.5342 24.6344C33.328 24.6344 33.9233 24.0391 33.9233 23.2453C33.7249 22.4515 33.1295 21.8562 32.5342 21.8562ZM32.5342 23.8406C32.1373 23.8406 31.9389 23.6422 31.9389 23.2453C31.9389 22.8484 32.1373 22.65 32.5342 22.65C32.9311 22.65 33.1295 22.8484 33.1295 23.2453C32.9311 23.6422 32.7326 23.8406 32.5342 23.8406Z" fill="white"/>
<path d="M32.7326 39.1208V35.7473C32.7326 34.9535 32.1373 34.3582 31.3435 34.3582H29.5575V35.1519H31.3435C31.7404 35.1519 31.9389 35.3504 31.9389 35.7473V39.1208H32.7326Z" fill="white"/>
<path d="M32.5342 40.3115C31.7404 40.3115 31.1451 40.9069 31.1451 41.7006C31.1451 42.4944 31.7404 43.0897 32.5342 43.0897C33.328 43.0897 33.9233 42.4944 33.9233 41.7006C33.7249 40.9069 33.1295 40.3115 32.5342 40.3115ZM32.5342 42.296C32.1373 42.296 31.9389 42.0975 31.9389 41.7006C31.9389 41.3037 32.1373 41.1053 32.5342 41.1053C32.9311 41.1053 33.1295 41.3037 33.1295 41.7006C32.9311 41.8991 32.7326 42.296 32.5342 42.296Z" fill="white"/>
<path d="M36.7015 30.5878V29.1987H35.9077V30.5878C35.9077 31.3816 35.114 32.1754 34.3202 32.1754H29.5575V32.9692H34.3202C35.7093 32.7707 36.7015 31.7785 36.7015 30.5878Z" fill="white"/>
<path d="M36.3046 25.2297C35.5109 25.2297 34.9155 25.8251 34.9155 26.6188C34.9155 27.4126 35.5109 28.008 36.3046 28.008C37.0984 28.008 37.6937 27.4126 37.6937 26.6188C37.6937 25.8251 37.0984 25.2297 36.3046 25.2297ZM36.3046 27.2142C35.9077 27.2142 35.7093 27.0157 35.7093 26.6188C35.7093 26.222 35.9077 26.0235 36.3046 26.0235C36.7015 26.0235 36.9 26.222 36.9 26.6188C36.9 27.0157 36.7015 27.2142 36.3046 27.2142Z" fill="white"/>
<path d="M36.7015 34.5566H35.9077V39.1209H36.7015V34.5566Z" fill="white"/>
<path d="M39.0829 27.6111H38.2891V35.152H39.0829V27.6111Z" fill="white"/>
<path d="M39.0829 36.3428H38.2891V37.1366H39.0829V36.3428Z" fill="white"/>
<path d="M23.2073 31.9771H22.4135V32.7708H23.2073V31.9771Z" fill="white"/>
<path d="M25.9855 42.6929H25.1918V43.4867H25.9855V42.6929Z" fill="white"/>
<path d="M17.8493 35.3503H17.0556V36.1441H17.8493V35.3503Z" fill="white"/>
<path d="M26.5809 28.6033H25.7871V29.397H26.5809V28.6033Z" fill="white"/>
<path d="M17.4524 29.5955H16.6587V30.3892H17.4524V29.5955Z" fill="white"/>
<defs>
<linearGradient id="paint0_linear" x1="13.3782" y1="7.89579" x2="43.1269" y2="57.0458" gradientUnits="userSpaceOnUse">
<stop stop-color="#2DB499"/>
<stop offset="1" stop-color="#217FB8"/>
</linearGradient>
</defs>
</svg>
