<svg width="57" height="65" viewBox="0 0 57 65" fill="none" xmlns="http://www.w3.org/2000/svg">
<path d="M56.2575 32.5723C56.2575 36.9381 56.2575 41.3039 56.2575 45.6696C56.2575 48.4479 55.0668 50.2339 52.8839 51.4245C50.3042 52.8136 47.9228 54.4012 45.5415 55.7903C43.1602 57.1794 40.5804 58.767 38.1991 60.1561C36.0162 61.3467 34.0317 62.5374 31.8489 63.9265C30.2613 64.9187 28.6737 65.3156 26.8877 64.7203C26.094 64.5218 25.3002 63.9265 24.5064 63.5296C19.9422 60.7514 15.378 58.1716 10.8138 55.3934C8.23399 53.8059 5.65421 52.4167 3.07444 50.8292C1.68533 50.0354 0.693115 48.8448 0.693115 47.0588C0.693115 45.8681 0.693115 44.6774 0.693115 43.6852C0.693115 35.549 0.693115 27.6112 0.693115 19.475C0.693115 16.8952 1.88377 15.1092 4.06666 13.9186C7.24177 11.9341 10.4169 9.94968 13.592 8.16369C16.3702 6.57613 19.1484 4.79013 21.9266 3.20258C23.3158 2.4088 24.7049 1.41658 26.094 0.622805C27.4831 -0.170972 29.0706 -0.170972 30.6582 0.424361C33.0395 1.81347 35.4208 3.20258 37.8022 4.59169C40.1835 5.9808 42.5648 7.36991 44.9462 8.95746C47.9228 10.7435 50.8995 12.5295 53.6777 14.3155C55.2653 15.3077 56.0591 16.8952 56.0591 18.8797C56.0591 22.0548 56.0591 25.0314 56.0591 28.2066C56.2575 29.5957 56.2575 31.1832 56.2575 32.5723Z" fill="url(#paint0_linear)"/>
<path d="M42.9617 31.7785C42.3664 31.5801 41.7711 31.3816 41.1758 31.1832V20.4672C41.1758 19.6734 40.5804 18.8796 39.5882 18.8796H12.9967C12.2029 18.8796 11.4091 19.475 11.4091 20.4672V39.7163C11.4091 39.9147 11.4091 40.1132 11.6076 40.3116H9.22621C9.02777 40.3116 9.02778 40.3116 8.82933 40.5101C8.82933 40.7085 8.63089 40.7085 8.82933 40.9069L9.42467 43.8836C9.42467 44.0821 9.62311 44.2805 9.82155 44.2805H31.452C33.0395 47.2572 36.0162 49.2416 39.5882 49.2416C44.5493 49.2416 48.7166 45.0743 48.7166 40.1132C48.7166 36.5412 46.3353 33.1676 42.9617 31.7785ZM12.4013 20.6656C12.4013 20.2687 12.5998 20.0703 12.9967 20.0703H39.5882C39.9851 20.0703 40.1835 20.2687 40.1835 20.6656V31.1832C39.9851 31.1832 39.7866 31.1832 39.3897 31.1832C34.8255 31.1832 30.8566 34.5567 30.4598 39.121C30.4598 39.5178 30.4598 39.9147 30.4598 40.3116V40.5101H12.9967C12.5998 40.5101 12.4013 40.3116 12.4013 39.9147V20.6656ZM10.2184 43.4867L9.82155 41.3038H30.4598C30.4598 42.0976 30.6582 42.6929 31.0551 43.4867H10.2184ZM39.5882 48.4478C35.024 48.4478 31.452 44.8758 31.452 40.3116C31.452 39.9147 31.452 39.7163 31.452 39.3194C32.0473 35.1521 35.4209 32.1754 39.5882 32.1754C40.5804 32.1754 41.5726 32.3738 42.5649 32.7707C45.74 33.9614 47.7244 36.9381 47.7244 40.3116C47.7244 44.6774 44.1524 48.4478 39.5882 48.4478ZM43.5571 37.5334L38.7944 43.0898L35.6193 40.5101C35.4209 40.3116 35.2224 40.3116 35.024 40.5101C34.8255 40.7085 34.8255 40.9069 35.024 41.1054L38.596 43.8836H38.7944C38.9929 43.8836 38.9929 43.8836 39.1913 43.6852L44.3509 37.7318C44.5493 37.5334 44.5493 37.335 44.3509 37.1365C43.954 37.1365 43.5571 37.335 43.5571 37.5334ZM13.592 24.2376C13.7904 24.2376 13.7904 24.2376 13.9889 24.0392L16.3702 21.6579C16.5687 21.4594 16.5687 21.261 16.3702 21.0625C16.1718 20.8641 15.9733 20.8641 15.7749 21.0625L13.3936 23.4439C13.1951 23.6423 13.1951 23.8407 13.3936 24.0392C13.3936 24.2376 13.592 24.2376 13.592 24.2376ZM13.592 26.619C13.7904 26.619 13.7904 26.619 13.9889 26.4205L18.7515 21.6579C18.95 21.4594 18.95 21.261 18.7515 21.0625C18.5531 20.8641 18.3546 20.8641 18.1562 21.0625L13.1951 25.8252C12.9967 26.0236 12.9967 26.2221 13.1951 26.4205C13.3935 26.619 13.3936 26.619 13.592 26.619ZM29.0706 41.8992H23.5142C23.3158 41.8992 23.1173 42.0976 23.1173 42.2961C23.1173 42.4945 23.3158 42.6929 23.5142 42.6929H29.0706C29.2691 42.6929 29.4675 42.4945 29.4675 42.2961C29.4675 42.0976 29.4675 41.8992 29.0706 41.8992ZM26.2924 22.0547C26.6893 22.0547 26.8878 21.6579 26.8878 21.4594C26.8878 21.261 26.4909 20.8641 26.2924 20.8641C26.094 20.8641 25.6971 21.261 25.6971 21.4594C25.6971 21.6579 25.8955 22.0547 26.2924 22.0547ZM26.2924 21.261C26.4909 21.261 26.4909 21.4594 26.4909 21.4594C26.4909 21.6579 26.2924 21.6579 26.2924 21.6579L26.094 21.4594C26.094 21.261 26.2924 21.261 26.2924 21.261Z" fill="white"/>
<defs>
<linearGradient id="paint0_linear" x1="13.6851" y1="7.97397" x2="43.4338" y2="57.124" gradientUnits="userSpaceOnUse">
<stop stop-color="#F69167"/>
<stop offset="1" stop-color="#FFC857"/>
</linearGradient>
</defs>
</svg>
