<svg width="56" height="65" viewBox="0 0 56 65" fill="none" xmlns="http://www.w3.org/2000/svg">
<path d="M55.8219 32.5723C55.8219 36.9381 55.8219 41.3039 55.8219 45.6696C55.8219 48.4479 54.6313 50.2339 52.4484 51.4245C49.8686 52.8136 47.4873 54.4012 45.106 55.7903C42.7246 57.1794 40.1449 58.767 37.7635 60.1561C35.5806 61.3467 33.5962 62.5374 31.4133 63.9265C29.8258 64.9187 28.2382 65.3156 26.4522 64.7203C25.6584 64.5218 24.8646 63.9265 24.0709 63.5296C19.5067 60.7514 14.9424 58.1716 10.3782 55.3934C7.79845 53.8058 5.21867 52.4167 2.6389 50.8292C1.24979 50.0354 0.257568 48.8447 0.257568 47.0588C0.257568 45.8681 0.257568 44.6774 0.257568 43.6852C0.257568 35.549 0.257568 27.6112 0.257568 19.475C0.257568 16.8952 1.44823 15.1092 3.63112 13.9186C6.80623 12.1326 9.98133 10.1481 13.1564 8.16369C15.9347 6.57614 18.7129 4.79014 21.4911 3.20258C22.8802 2.40881 24.2693 1.41658 25.6584 0.622803C27.0475 -0.170973 28.6351 -0.17097 30.2226 0.424362C32.604 1.81347 34.9853 3.20258 37.3666 4.59169C39.748 5.9808 42.1293 7.36991 44.5106 8.95746C47.4873 10.7435 50.464 12.5295 53.2422 14.3155C54.8297 15.3077 55.6235 16.8952 55.6235 18.8797C55.6235 22.0548 55.6235 25.0314 55.6235 28.2065C55.8219 29.5957 55.8219 30.9848 55.8219 32.5723Z" fill="url(#paint0_linear)"/>
<path d="M42.5262 31.7785C41.9309 31.5801 41.3355 31.3816 40.7402 31.1832V20.4672C40.7402 19.6734 40.1449 18.8796 39.1526 18.8796H12.5611C11.7673 18.8796 10.9736 19.475 10.9736 20.4672V39.7163C10.9736 39.9147 10.9736 40.1132 11.172 40.3116H8.79067C8.59223 40.3116 8.59223 40.3116 8.39378 40.5101C8.19534 40.7085 8.19534 40.7085 8.39378 40.9069L8.98912 43.8836C8.98912 44.0821 9.18756 44.2805 9.386 44.2805H31.0164C32.604 47.2572 35.5806 49.2416 39.1526 49.2416C44.1137 49.2416 48.2811 45.0743 48.2811 40.1132C48.0826 36.3427 45.8997 33.1676 42.5262 31.7785ZM11.9658 20.4672C11.9658 20.0703 12.1642 19.8719 12.5611 19.8719H39.1526C39.5495 19.8719 39.748 20.0703 39.748 20.4672V30.9847C39.5495 30.9847 39.3511 30.9847 38.9542 30.9847C34.39 30.9847 30.4211 34.3583 30.0242 38.9225C30.0242 39.3194 30.0242 39.7163 30.0242 40.1132V40.3116H12.5611C12.1642 40.3116 11.9658 40.1132 11.9658 39.7163V20.4672ZM9.78289 43.2883L9.386 41.1054H30.0242C30.0242 41.8992 30.2226 42.4945 30.6195 43.2883H9.78289ZM38.9542 48.2494C34.39 48.2494 30.818 44.6774 30.818 40.1132C30.818 39.7163 30.818 39.5178 30.818 39.1209C31.4133 34.9536 34.7869 31.977 38.9542 31.977C39.9464 31.977 40.9386 32.1754 41.9309 32.5723C45.106 33.763 47.0904 36.7396 47.0904 40.1132C47.2889 44.6774 43.5184 48.2494 38.9542 48.2494ZM13.1564 24.2376C13.3549 24.2376 13.3549 24.2376 13.5533 24.0392L15.9347 21.6579C16.1331 21.4594 16.1331 21.261 15.9347 21.0625C15.7362 20.8641 15.5378 20.8641 15.3393 21.0625L12.958 23.4439C12.7596 23.6423 12.7596 23.8407 12.958 24.0392C12.958 24.0392 12.958 24.2376 13.1564 24.2376ZM13.1564 26.619C13.3549 26.619 13.3549 26.619 13.5533 26.4205L18.316 21.6579C18.5144 21.4594 18.5144 21.261 18.316 21.0625C18.1176 20.8641 17.9191 20.8641 17.7207 21.0625L12.958 25.8252C12.7596 26.0236 12.7596 26.2221 12.958 26.4205C12.7596 26.4205 12.958 26.619 13.1564 26.619ZM28.6351 41.8992H23.0787C22.8802 41.8992 22.6818 42.0976 22.6818 42.2961C22.6818 42.4945 22.8802 42.6929 23.0787 42.6929H28.6351C28.8335 42.6929 29.032 42.4945 29.032 42.2961C29.032 42.0976 28.8335 41.8992 28.6351 41.8992ZM25.8569 22.0548C26.2538 22.0548 26.4522 21.6579 26.4522 21.4594C26.4522 21.261 26.0553 20.8641 25.8569 20.8641C25.6584 20.8641 25.2615 21.261 25.2615 21.4594C25.2615 21.6579 25.46 22.0548 25.8569 22.0548ZM25.8569 21.0625C26.0553 21.0625 26.0553 21.261 26.0553 21.261L25.8569 21.4594C25.6584 21.4594 25.6584 21.261 25.6584 21.261C25.6584 21.261 25.6584 21.0625 25.8569 21.0625ZM40.3433 35.7474C40.1449 35.7474 40.1449 35.9458 40.1449 35.9458L37.3666 43.8836C37.3666 44.0821 37.3666 44.2805 37.5651 44.2805C37.7635 44.2805 37.962 44.2805 37.962 44.0821L40.7402 36.1443C40.7402 35.9458 40.7402 35.7474 40.5417 35.7474H40.3433ZM36.176 37.7318H35.9775L33.1993 39.9147C33.1993 39.9147 33.1993 39.9147 33.0009 39.9147C32.8024 40.1132 32.8024 40.1132 33.0009 40.3116C33.0009 40.3116 33.0009 40.3116 33.1993 40.3116L35.9775 42.4945C36.176 42.6929 36.3744 42.6929 36.3744 42.4945C36.5729 42.2961 36.5729 42.2961 36.3744 42.0976L33.7946 40.1132L36.3744 38.1287C36.5729 37.9303 36.5729 37.9303 36.3744 37.7318C36.176 37.7318 36.176 37.7318 36.176 37.7318ZM41.9309 37.7318H41.7324C41.534 37.9303 41.534 37.9303 41.7324 38.1287L44.3122 40.1132L41.7324 42.0976C41.534 42.2961 41.534 42.2961 41.7324 42.4945C41.9309 42.6929 42.1293 42.6929 42.1293 42.4945L44.9075 40.3116C44.9075 40.3116 44.9075 40.3116 45.106 40.3116C45.3044 40.1132 45.3044 40.1132 45.106 39.9147C45.106 39.9147 45.106 39.9147 44.9075 39.9147L42.1293 37.7318C42.1293 37.7318 42.1293 37.7318 41.9309 37.7318Z" fill="white"/>
<defs>
<linearGradient id="paint0_linear" x1="13.1763" y1="7.89579" x2="42.9251" y2="57.0459" gradientUnits="userSpaceOnUse">
<stop stop-color="#F5A731"/>
<stop offset="1" stop-color="#EEE163"/>
</linearGradient>
</defs>
</svg>
