<svg width="57" height="65" viewBox="0 0 57 65" fill="none" xmlns="http://www.w3.org/2000/svg">
<path d="M56.1288 32.5723C56.1288 36.9381 56.1288 41.3039 56.1288 45.6696C56.1288 48.4479 54.9382 50.2339 52.7553 51.4245C50.1755 52.8136 47.7942 54.4012 45.4128 55.7903C43.0315 57.1794 40.4517 58.767 38.0704 60.1561C35.8875 61.3467 33.9031 62.5374 31.7202 63.9265C30.1326 64.9187 28.5451 65.3156 26.7591 64.7203C25.9653 64.5218 25.1715 63.9265 24.3778 63.5296C19.8135 60.7514 15.2493 58.1716 10.6851 55.3934C8.10533 53.8059 5.52556 52.4167 2.94578 50.8292C1.55667 50.0354 0.564453 48.8448 0.564453 47.0588C0.564453 45.8681 0.564453 44.6774 0.564453 43.6852C0.564453 35.549 0.564453 27.6112 0.564453 19.475C0.564453 16.8952 1.75512 15.1092 3.938 13.9186C7.11311 11.9341 10.2882 9.94968 13.4633 8.16369C16.2415 6.57613 19.0198 4.79013 21.798 3.20258C23.1871 2.4088 24.5762 1.41658 25.9653 0.622805C27.3544 -0.170972 28.942 -0.170972 30.5295 0.424361C32.9109 1.81347 35.2922 3.20258 37.6735 4.59169C40.0549 5.9808 42.4362 7.36991 44.8175 8.95746C47.7942 10.7435 50.7708 12.5295 53.5491 14.3155C55.1366 15.3077 55.9304 16.8952 55.9304 18.8797C55.9304 22.0548 55.9304 25.0314 55.9304 28.2066C56.1288 29.5957 56.1288 31.1832 56.1288 32.5723Z" fill="url(#paint0_linear)"/>
<path d="M27.9498 45.4713C27.9498 45.6698 28.1482 45.8682 28.3467 45.8682C28.5451 45.8682 28.7435 45.6698 28.7435 45.4713C28.7435 45.2729 28.5451 45.0745 28.3467 45.0745C28.1482 45.0745 27.9498 45.0745 27.9498 45.4713Z" fill="white"/>
<path d="M29.3389 20.0704C29.5373 20.0704 29.7358 19.8719 29.7358 19.6735C29.7358 19.4751 29.5373 19.2766 29.3389 19.2766H27.156C26.9575 19.2766 26.7591 19.4751 26.7591 19.6735C26.7591 19.8719 26.9575 20.0704 27.156 20.0704H29.3389Z" fill="white"/>
<path d="M34.6969 17.0938H22.1949C21.0042 17.0938 20.012 18.086 20.012 19.2766V45.6697C20.012 46.8604 21.0042 47.8526 22.1949 47.8526H34.6969C35.8875 47.8526 36.8798 46.8604 36.8798 45.6697V19.2766C36.6813 18.086 35.8875 17.0938 34.6969 17.0938ZM36.086 45.6697C36.086 46.4635 35.4906 47.0588 34.6969 47.0588H22.1949C21.4011 47.0588 20.8058 46.4635 20.8058 45.6697V43.6853H36.086V45.6697ZM36.086 42.8915H20.8058V22.0549H36.086V42.8915ZM36.086 21.2611H20.8058V19.2766C20.8058 18.4829 21.4011 17.8875 22.1949 17.8875H34.6969C35.4906 17.8875 36.086 18.4829 36.086 19.2766V21.2611Z" fill="white"/>
<defs>
<linearGradient id="paint0_linear" x1="13.4913" y1="7.97397" x2="43.2401" y2="57.124" gradientUnits="userSpaceOnUse">
<stop stop-color="#E84286"/>
<stop offset="1" stop-color="#F3746D"/>
</linearGradient>
</defs>
</svg>
