<svg width="56" height="65" viewBox="0 0 56 65" fill="none" xmlns="http://www.w3.org/2000/svg">
<path d="M55.6933 32.5723C55.6933 36.9381 55.6933 41.3039 55.6933 45.6696C55.6933 48.4479 54.5026 50.2339 52.3197 51.4245C49.74 52.8136 47.3586 54.4012 44.9773 55.7903C42.596 57.1794 40.0162 58.767 37.6349 60.1561C35.452 61.3467 33.4675 62.5374 31.2846 63.9265C29.6971 64.9187 28.1095 65.3156 26.3235 64.7203C25.5298 64.5218 24.736 63.9265 23.9422 63.5296C19.378 60.7514 14.8138 58.1716 10.2496 55.3934C7.66978 53.8059 5.09001 52.4167 2.51023 50.8292C1.12112 50.0354 0.128906 48.8448 0.128906 47.0588C0.128906 45.8681 0.128906 44.6774 0.128906 43.6852C0.128906 35.549 0.128906 27.6112 0.128906 19.475C0.128906 16.8952 1.31957 15.1092 3.50245 13.9186C6.67756 11.9341 9.65423 9.94968 12.8293 8.16369C15.6076 6.57613 18.3858 4.79013 21.164 3.20258C22.5531 2.4088 23.9422 1.41658 25.3313 0.622805C26.7204 -0.170972 28.308 -0.170972 29.8955 0.424361C32.2769 1.81347 34.6582 3.20258 37.0395 4.59169C39.4209 5.9808 41.8022 7.36991 44.1835 8.95746C47.1602 10.7435 50.1369 12.5295 52.9151 14.3155C54.5026 15.3077 55.2964 16.8952 55.2964 18.8797C55.2964 22.0548 55.2964 25.0314 55.2964 28.2066C55.6933 29.5957 55.6933 31.1832 55.6933 32.5723Z" fill="url(#paint0_linear)"/>
<path d="M15.2107 22.6502H40.6115V26.2222H15.2107V22.6502ZM15.2107 26.8175H40.6115V28.0082V31.5802V42.2962H15.2107V26.8175ZM14.4169 21.8564C14.2184 21.8564 14.02 22.0548 14.02 22.2533V42.693C14.02 42.8915 14.2184 43.0899 14.4169 43.0899H41.0084C41.2069 43.0899 41.4053 42.8915 41.4053 42.693V31.5802V28.0082V22.0548C41.4053 21.8564 41.2069 21.658 41.0084 21.658H14.4169C14.6153 21.8564 14.6153 21.8564 14.4169 21.8564ZM17.1951 23.8408C16.7982 23.8408 16.5998 24.0393 16.5998 24.4362C16.5998 24.8331 16.7982 25.0315 17.1951 25.0315C17.592 25.0315 17.7904 24.8331 17.7904 24.4362C17.7904 24.0393 17.3936 23.8408 17.1951 23.8408ZM19.378 23.8408C18.9811 23.8408 18.7827 24.0393 18.7827 24.4362C18.7827 24.8331 18.9811 25.0315 19.378 25.0315C19.7749 25.0315 19.9733 24.8331 19.9733 24.4362C19.7749 24.0393 19.5764 23.8408 19.378 23.8408ZM21.5609 23.8408C21.164 23.8408 20.9656 24.0393 20.9656 24.4362C20.9656 24.8331 21.164 25.0315 21.5609 25.0315C21.9578 25.0315 22.1562 24.8331 22.1562 24.4362C21.9578 24.0393 21.7593 23.8408 21.5609 23.8408Z" fill="white"/>
<path d="M29.1018 29.9927C28.9033 29.9927 28.9033 30.1911 28.9033 30.1911L26.1251 38.1289C26.1251 38.3273 26.1251 38.5258 26.3235 38.5258C26.522 38.5258 26.7204 38.5258 26.7204 38.3273L29.4986 30.3896C29.4986 30.1911 29.4986 29.9927 29.3002 29.9927C29.3002 29.9927 29.1018 29.9927 29.1018 29.9927Z" fill="white"/>
<path d="M24.9344 31.9771H24.736L21.9578 34.1599C21.9578 34.1599 21.9578 34.1599 21.7593 34.1599C21.5609 34.3584 21.5609 34.3584 21.7593 34.5568C21.7593 34.5568 21.7593 34.5568 21.9578 34.5568L24.736 36.7397C24.9344 36.9382 25.1329 36.9382 25.1329 36.7397C25.3313 36.5413 25.3313 36.5413 25.1329 36.3428L22.5531 34.3584L25.1329 32.3739C25.3313 32.1755 25.3313 32.1755 25.1329 31.9771C25.1329 31.9771 24.9344 31.9771 24.9344 31.9771Z" fill="white"/>
<path d="M30.6893 31.9771H30.4909C30.2924 32.1755 30.2924 32.1755 30.4909 32.3739L33.0707 34.3584L30.4909 36.3428C30.2924 36.5413 30.2924 36.5413 30.4909 36.7397C30.6893 36.9382 30.8878 36.9382 30.8878 36.7397L33.666 34.5568C33.666 34.5568 33.666 34.5568 33.8644 34.5568C34.0629 34.3584 34.0629 34.3584 33.8644 34.1599C33.8644 34.1599 33.8644 34.1599 33.666 34.1599L31.0862 31.9771C30.8878 31.9771 30.8878 31.9771 30.6893 31.9771Z" fill="white"/>
<defs>
<linearGradient id="paint0_linear" x1="14.2133" y1="10.0168" x2="42.0383" y2="55.9885" gradientUnits="userSpaceOnUse">
<stop stop-color="#EF6081"/>
<stop offset="1" stop-color="#F58A67"/>
</linearGradient>
</defs>
</svg>
