<svg width="57" height="65" viewBox="0 0 57 65" fill="none" xmlns="http://www.w3.org/2000/svg">
<path d="M56.3862 32.5723C56.3862 36.9381 56.3862 41.3039 56.3862 45.6696C56.3862 48.4479 55.1955 50.2339 53.0126 51.4245C50.4328 52.8136 48.0515 54.4012 45.6702 55.7903C43.2888 57.1794 40.7091 58.767 38.3277 60.1561C36.1448 61.3467 34.1604 62.5374 31.9775 63.9265C30.39 64.9187 28.8024 65.3156 27.0164 64.7203C26.2226 64.5218 25.4289 63.9265 24.6351 63.5296C20.0709 60.7514 15.5066 58.1716 10.9424 55.3934C8.36266 53.8058 5.78288 52.4167 3.20311 50.8292C1.814 50.0354 0.821777 48.8447 0.821777 47.0588C0.821777 45.8681 0.821777 44.6774 0.821777 43.6852C0.821777 35.549 0.821777 27.6112 0.821777 19.475C0.821777 16.8952 2.01244 15.1092 4.19533 13.9186C7.37043 12.1326 10.5455 10.1481 13.7206 8.16369C16.4989 6.57614 19.2771 4.79014 22.0553 3.20258C23.4444 2.40881 24.8335 1.41658 26.2226 0.622803C27.6117 -0.170973 29.1993 -0.17097 30.7869 0.424362C33.1682 1.81347 35.5495 3.20258 37.9308 4.59169C40.3122 5.9808 42.6935 7.36991 45.0748 8.95746C48.0515 10.7435 51.0282 12.5295 53.8064 14.3155C55.3939 15.3077 56.1877 16.8952 56.1877 18.8797C56.1877 22.0548 56.1877 25.0314 56.1877 28.2065C56.3862 29.5957 56.3862 30.9848 56.3862 32.5723Z" fill="url(#paint0_linear)"/>
<path d="M32.7713 34.7552H17.4911H17.2927C14.7129 34.3583 12.7284 32.1754 12.7284 29.5956C12.7284 27.0159 14.5144 24.833 17.0942 24.4361C18.2849 21.6579 20.8646 20.0703 23.8413 20.0703C27.0164 20.0703 29.5962 22.0548 30.7869 24.833C31.3822 24.6345 31.9775 24.4361 32.7713 24.4361C35.748 24.4361 38.1293 26.8174 38.1293 29.7941C38.1293 32.3738 35.748 34.7552 32.7713 34.7552ZM17.6895 33.9614H32.7713C35.1526 33.9614 37.1371 31.977 37.1371 29.5956C37.1371 27.2143 35.1526 25.2299 32.7713 25.2299C31.9775 25.2299 31.3822 25.4283 30.7869 25.6267C30.5884 25.6267 30.5884 25.6267 30.39 25.6267C30.1915 25.6267 30.1915 25.4283 30.1915 25.4283C29.3978 22.6501 26.818 20.8641 23.8413 20.8641C21.0631 20.8641 18.6818 22.4516 17.6895 25.0314C17.6895 25.2299 17.4911 25.2299 17.2927 25.2299C15.1098 25.4283 13.3238 27.4127 13.3238 29.5956C13.5222 31.7785 15.3082 33.763 17.6895 33.9614Z" fill="white"/>
<path d="M38.9231 41.1053C38.5262 41.1053 38.3277 41.1053 37.9308 41.1053C37.534 41.1053 37.3355 41.1053 37.1371 41.1053H27.4133C27.2149 41.1053 27.0164 40.9068 27.0164 40.7084C27.0164 40.5099 27.2149 40.3115 27.4133 40.3115H37.1371C37.534 40.3115 37.7324 40.3115 38.1293 40.3115C39.32 40.3115 40.5106 40.5099 41.3044 39.7162C42.2966 38.7239 42.6935 37.7317 42.2966 36.5411C42.2966 36.3426 42.0982 36.1442 42.0982 35.9457C41.8997 34.9535 41.7013 34.1597 40.9075 33.7628C40.1137 33.3659 38.7246 32.5722 37.9308 32.5722C37.7324 32.5722 37.534 32.3737 37.534 32.1753C37.534 31.9768 37.7324 31.7784 37.9308 31.7784C39.1215 31.5799 40.5106 32.5722 41.3044 32.9691C42.2966 33.5644 42.6935 34.7551 42.8919 35.7473C42.8919 35.9457 43.0904 36.1442 43.0904 36.3426C43.4873 37.9302 43.0904 39.1208 41.8997 40.3115C41.1059 40.9068 39.9153 41.1053 38.9231 41.1053Z" fill="white"/>
<path d="M27.2149 42.4946H23.4444C23.246 42.4946 23.0475 42.2961 23.0475 42.0977V39.121C23.0475 38.9226 23.246 38.7241 23.4444 38.7241H27.2149C27.4133 38.7241 27.6117 38.9226 27.6117 39.121V42.0977C27.6117 42.2961 27.6118 42.4946 27.2149 42.4946ZM24.0398 41.7008H27.0164V39.5179H24.0398V41.7008Z" fill="white"/>
<defs>
<linearGradient id="paint0_linear" x1="13.7486" y1="7.89579" x2="43.4974" y2="57.0458" gradientUnits="userSpaceOnUse">
<stop stop-color="#E5D333"/>
<stop offset="1" stop-color="#A7BC63"/>
</linearGradient>
</defs>
</svg>
