<svg width="71" height="80" viewBox="0 0 71 80" fill="none" xmlns="http://www.w3.org/2000/svg">
<path opacity="0.8" fill-rule="evenodd" clip-rule="evenodd" d="M68.9377 35.2174C68.9377 34.3578 66.9007 33.2113 66.9007 33.2113C65.5911 32.4949 64.7182 32.0654 64.7182 32.0654L53.5153 31.4922C53.5153 31.4922 50.6054 34.3578 50.8962 38.5132C51.113 41.6053 57.8802 40.626 57.8802 40.626C58.6077 39.05 62.8272 37.5098 62.8272 37.5098C63.9914 36.9372 66.6099 37.0803 66.6099 37.0803C69.5198 36.7934 68.9377 35.2174 68.9377 35.2174Z" fill="#FFB674"/>
<path fill-rule="evenodd" clip-rule="evenodd" d="M67.0464 27.7666C65.3001 28.0529 62.2448 28.0529 62.2448 28.0529C59.1895 28.0529 58.3167 25.8086 58.3167 25.8086C52.4968 26.6682 52.4968 37.0805 52.4968 37.0805C55.5521 36.6505 59.2866 36.2204 62.5361 35.2176C65.7851 34.2149 69.0834 28.9131 69.0834 28.9131C70.6838 26.7638 67.0464 27.7666 67.0464 27.7666Z" fill="#F6F6F6"/>
<path fill-rule="evenodd" clip-rule="evenodd" d="M67.0464 27.7666C65.3001 28.0529 62.2448 28.0529 62.2448 28.0529C59.1895 28.0529 58.3167 25.8086 58.3167 25.8086C52.4968 26.6682 52.4968 37.0805 52.4968 37.0805C55.5521 36.6505 59.2866 36.2204 62.5361 35.2176C65.7851 34.2149 69.0834 28.9131 69.0834 28.9131C70.6838 26.7638 67.0464 27.7666 67.0464 27.7666Z" fill="#F9B270"/>
<path fill-rule="evenodd" clip-rule="evenodd" d="M70.0285 59.7551C69.2921 55.9483 67.2646 52.3991 64.1592 49.8731C61.1993 47.4663 56.0676 45.0519 58.0254 40.423C53.3692 42.1428 52.7877 35.6475 52.7877 35.6475C52.5935 33.5458 55.6976 33.3545 56.6676 32.0173C57.4141 30.9876 57.9593 28.5374 58.3162 27.3369C58.4228 26.9784 59.189 27.05 59.189 27.05C56.3828 22.7215 52.1836 18.8015 46.673 18.751C41.2523 18.7012 35.5785 21.9858 32.8723 26.5747C30.5922 30.4419 30.1823 35.3266 31.7868 39.5095C32.8395 42.2519 34.6675 44.6054 36.5937 46.8074C37.886 48.2848 38.5486 48.6967 36.3345 49.3498C33.175 50.2809 29.8182 50.995 26.5145 51.0883C23.4306 51.1757 20.2633 50.6254 17.6203 49.0587C15.1441 47.5907 13.663 45.3934 11.7284 43.3785C10.1382 41.7227 8.68858 41.9093 7.76449 44.1266C6.3566 47.5021 6.19752 51.2895 6.75877 54.8634C8.16308 63.8066 12.6137 74.5305 21.5651 78.3537C22.0072 78.5427 22.4368 78.7803 22.9122 78.836C40.0875 80.8392 56.7695 79.8417 59.189 78.9188C64.1974 77.0089 68.1869 72.7016 69.6758 67.6245C70.4331 65.0423 70.5284 62.3391 70.0285 59.7551Z" fill="#FFD78E"/>
<path fill-rule="evenodd" clip-rule="evenodd" d="M50.3627 25.1396C51.916 25.1396 53.1749 26.4011 53.1749 27.9578C53.1749 29.5138 51.916 30.7753 50.3627 30.7753C48.8095 30.7753 47.5505 29.5138 47.5505 27.9578C47.5505 26.4011 48.8095 25.1396 50.3627 25.1396Z" fill="#FEFEFE"/>
<path fill-rule="evenodd" clip-rule="evenodd" d="M50.9635 26.0166C52.142 26.0166 53.0977 26.9736 53.0977 28.1547C53.0977 29.3352 52.142 30.2922 50.9635 30.2922C49.785 30.2922 48.8293 29.3352 48.8293 28.1547C48.8293 26.9736 49.785 26.0166 50.9635 26.0166Z" fill="#020303"/>
<path fill-rule="evenodd" clip-rule="evenodd" d="M51.3406 26.3491C51.8238 26.3491 52.2158 26.7417 52.2158 27.2257C52.2158 27.7098 51.8238 28.1017 51.3406 28.1017C50.8574 28.1017 50.4653 27.7098 50.4653 27.2257C50.4653 26.7417 50.8574 26.3491 51.3406 26.3491Z" fill="#FEFEFE"/>
<path opacity="0.2" fill-rule="evenodd" clip-rule="evenodd" d="M21.2568 70.1421C19.9311 68.3936 18.7872 66.5108 17.8011 64.5593C16.504 61.9928 14.9335 58.896 14.691 56.001C14.6934 56.0292 18.4476 56.6341 18.7788 56.6857C20.4274 56.9439 22.0909 57.1152 23.758 57.1986C29.9758 57.5095 40.5078 57.4174 43.0335 50.2861C43.2289 49.7334 43.3111 49.1467 43.3421 48.5623C43.435 46.8032 42.53 45.3058 41.6512 43.8595C40.7057 42.3035 39.9901 40.6136 39.5134 38.8628C37.5098 31.4997 39.8119 20.7312 48.6191 19.0162C48.6888 19.0027 48.7586 18.9898 48.8283 18.9763C48.133 18.8372 47.4144 18.758 46.6714 18.7515C41.2502 18.7017 35.577 21.9863 32.8708 26.5752C30.5907 30.4418 30.1808 35.3265 31.7853 39.5094C32.8374 42.2524 34.666 44.6058 36.5922 46.8073C37.8845 48.2847 38.547 48.6972 36.333 49.3497C33.1735 50.2814 29.8167 50.9955 26.513 51.0888C23.4291 51.1756 20.2618 50.6258 17.6182 49.0587C15.0878 47.5583 13.2152 44.9174 11.165 42.9154C10.9351 42.6913 10.6657 42.5065 10.3643 42.3926C9.13393 41.9268 8.40347 42.8808 7.95781 43.7721C6.34795 46.9939 6.30147 50.7761 6.72986 54.3235C7.31553 59.1718 8.82173 63.8781 11.1686 68.1783C12.9608 71.4623 15.288 74.5979 18.4833 76.6174C23.4505 79.7571 29.7345 79.7941 35.6359 79.7284C30.8046 79.7823 26.1555 75.671 23.1032 72.3547C22.4514 71.6465 21.8371 70.9073 21.2568 70.1421Z" fill="#F79966"/>
<ellipse cx="22.2414" cy="20.9827" rx="20.2946" ry="20.0896" fill="#373736" fill-opacity="0.2"/>
<path d="M20.5167 0C9.36276 0 0.142822 8.9697 0.142822 20.0111C0.142822 31.0526 9.36276 40.1792 20.5167 40.1792C31.6707 40.1792 40.7321 31.0526 40.7321 20.0111C40.7321 8.9697 31.6707 0 20.5167 0Z" fill="#FFD66B"/>
<path opacity="0.2" d="M40.7319 20.0111C40.7319 31.0526 31.6706 40.1792 20.5166 40.1792V0C31.6706 0 40.7319 8.9697 40.7319 20.0111Z" fill="#F79966"/>
<path opacity="0.7" d="M20.5168 4.7085C12.0024 4.7085 4.89941 11.5828 4.89941 20.0111C4.89941 28.4394 12.0024 35.4707 20.5168 35.4707C29.0311 35.4707 35.9755 28.4394 35.9755 20.0111C35.9755 11.5828 29.0311 4.7085 20.5168 4.7085Z" fill="#F79966"/>
<path d="M35.9754 20.0111C35.9754 28.4394 29.031 35.4707 20.5166 35.4707V4.7085C29.031 4.7085 35.9754 11.5828 35.9754 20.0111Z" fill="#F79966"/>
<path d="M22.8951 18.834H21.706V14.1255H22.8951C23.5611 14.1255 24.0843 14.6434 24.0843 15.3026C24.0843 16.8564 26.4625 16.8564 26.4625 15.3026C26.4625 13.3485 24.8692 11.7712 22.8951 11.7712H21.706V10.5941C21.706 9.81714 21.1114 9.41699 20.5168 9.41699C19.9223 9.41699 19.3277 9.81714 19.3277 10.5941V11.7712H17.98C16.0059 11.7712 14.4126 13.3485 14.4126 15.3026V17.6569C14.4126 19.611 16.0059 21.1883 17.98 21.1883H19.3277V26.0537H17.98C17.314 26.0537 16.7909 25.5359 16.7909 24.8766C16.7909 23.3229 14.4126 23.3229 14.4126 24.8766C14.4126 26.8307 16.0059 28.408 17.98 28.408H19.3277V29.5851C19.3277 30.3621 19.9223 30.7622 20.5168 30.7622C21.1114 30.7622 21.706 30.3621 21.706 29.5851V28.408H22.8951C24.8692 28.408 26.4625 26.8307 26.4625 24.8766V22.3654C26.4625 20.4113 24.8692 18.834 22.8951 18.834ZM19.3277 18.834H17.98C17.314 18.834 16.7909 18.3161 16.7909 17.6569V15.3026C16.7909 14.6434 17.314 14.1255 17.98 14.1255H19.3277V18.834ZM24.0843 24.8766C24.0843 25.5359 23.5611 26.0537 22.8951 26.0537H21.706V21.1883H22.8951C23.5611 21.1883 24.0843 21.7061 24.0843 22.3654V24.8766Z" fill="#FFD66B"/>
<path opacity="0.2" d="M22.8949 18.834H21.7057V14.1255H22.8949C23.5609 14.1255 24.084 14.6434 24.084 15.3026C24.084 16.8564 26.4623 16.8564 26.4623 15.3026C26.4623 13.3485 24.869 11.7712 22.8949 11.7712H21.7057V10.5941C21.7057 9.81714 21.1112 9.41699 20.5166 9.41699V30.7622C21.1112 30.7622 21.7057 30.3621 21.7057 29.5851V28.408H22.8949C24.869 28.408 26.4623 26.8307 26.4623 24.8766V22.3654C26.4623 20.4113 24.869 18.834 22.8949 18.834ZM24.084 24.8766C24.084 25.5359 23.5609 26.0537 22.8949 26.0537H21.7057V21.1883H22.8949C23.5609 21.1883 24.084 21.7061 24.084 22.3654V24.8766Z" fill="#F79966"/>
</svg>
