<svg width="80" height="80" viewBox="0 0 80 80" fill="none" xmlns="http://www.w3.org/2000/svg">
<path fill-rule="evenodd" clip-rule="evenodd" d="M79.9175 47.9157C79.4945 53.8614 77.5455 59.393 74.4563 64.1053C68.3791 73.3967 57.8886 79.5311 45.9685 79.5311C38.5719 79.5311 31.7269 77.1564 26.1459 73.1297C17.5403 66.9216 11.9319 56.7835 11.9319 45.3707L32.4714 16.7786L48.0186 11.4541C52.0364 11.6935 55.8611 12.6275 59.3825 14.1416C60.4858 14.6157 61.5616 15.1494 62.605 15.7339C72.9852 21.5693 80.0003 32.6922 80.0003 45.4582C80.0003 46.2864 79.9727 47.1057 79.9175 47.9157V47.9157Z" fill="#A6E7F0"/>
<path fill-rule="evenodd" clip-rule="evenodd" d="M62.605 15.7342C72.985 21.5696 80.0002 32.6925 80.0002 45.4585C80.0002 46.2867 79.9725 47.106 79.9173 47.916C79.1405 53.107 70.1716 52.61 69.6981 48.0863C69.2614 43.9214 65.4228 43.8156 63.6577 43.6408C59.3089 43.1991 57.3367 40.0881 62.89 32.7894C67.5147 26.7102 50.5561 20.5389 59.3825 14.1422C60.4858 14.616 61.5614 15.1499 62.605 15.7342V15.7342Z" fill="#80D261"/>
<path fill-rule="evenodd" clip-rule="evenodd" d="M49.0162 23.2628L51.1491 25.1588C52.234 26.1252 52.3352 27.8049 51.3698 28.8956L46.1199 34.8092L42.1113 31.8686L42.3641 26.7742L45.2879 23.4838C46.2534 22.393 47.9313 22.2964 49.0162 23.2628V23.2628Z" fill="#838383"/>
<path fill-rule="evenodd" clip-rule="evenodd" d="M42.3642 26.7741L46.12 34.8091L47.7611 38.3296C48.9794 40.9342 48.1012 43.5713 47.1267 44.6664L45.2328 46.7972C43.8031 48.4125 42.617 47.9292 41.4678 46.1852L30.4119 29.8207L31.9656 22.4436L39.8081 21.2977L42.3642 26.7741Z" fill="#ACACAC"/>
<path fill-rule="evenodd" clip-rule="evenodd" d="M22.1831 37.2852L26.2515 45.4767C27.249 47.4878 26.5135 49.5725 25.7551 50.4284L24.7162 51.5973C23.5992 52.8583 22.6706 52.4855 21.7742 51.1187L15.2876 43.5392L16.8231 39.1075L22.1831 37.2852Z" fill="#ACACAC"/>
<path fill-rule="evenodd" clip-rule="evenodd" d="M6.50727 27.9157L14.9796 30.8977L14.9429 36.7054L9.65165 38.3989L1.4368 33.0283C-0.0203829 32.2966 -0.503195 31.4177 0.618523 30.1613L1.65743 28.9879C2.41602 28.1364 4.39274 27.17 6.50727 27.9157V27.9157Z" fill="#ACACAC"/>
<path fill-rule="evenodd" clip-rule="evenodd" d="M55.5485 63.2265C58.5779 58.1873 67.9099 57.0368 74.4562 64.1054C68.379 73.397 57.8885 79.5314 45.9684 79.5314C38.5718 79.5314 31.7268 77.1567 26.1459 73.13C25.8379 63.7926 33.3724 61.372 39.4451 66.3926C42.0609 68.5511 51.7284 69.5958 55.5485 63.2265V63.2265Z" fill="#80D261"/>
<path fill-rule="evenodd" clip-rule="evenodd" d="M21.8659 0C22.491 0 23.1163 0.21625 23.6127 0.662656L25.7457 2.55859C26.8352 3.525 26.9318 5.20938 25.9663 6.29547L23.0473 9.58594H16.8229L14.6348 6.79719L19.8846 0.883594C20.4041 0.299219 21.1304 0 21.8568 0H21.8659Z" fill="#838383"/>
<path fill-rule="evenodd" clip-rule="evenodd" d="M14.635 6.79737L23.0477 9.58612L28.7756 11.4821L27.7642 18.8913L21.4295 21.8274L3.89172 12.7569C2.02531 11.818 1.40922 10.6997 2.8436 9.0844L4.7375 6.95362C5.7075 5.8583 8.22203 4.67565 10.9481 5.57768L14.635 6.79737Z" fill="#ACACAC"/>
<path fill-rule="evenodd" clip-rule="evenodd" d="M38.8522 1.68431C41.6701 0.84681 45.3984 0.289935 47.1728 1.88681C48.9656 3.46072 48.8461 7.22962 48.345 10.129C48.2714 10.5617 48.1658 11.0034 48.0186 11.4543C47.3658 13.5068 45.9637 15.702 43.5915 17.8695L39.8081 21.2979L30.4117 29.8207L15.2736 43.5254L14.63 44.1329C13.7106 44.8968 12.782 45.2834 11.9315 45.3709C9.06294 45.6654 7.06325 42.559 9.08138 39.1996L9.65138 38.3988L21.429 21.8271L28.7751 11.482L31.7356 7.32181C34.0115 4.13712 36.5031 2.38369 38.8522 1.68431V1.68431Z" fill="#ECECEC"/>
<path fill-rule="evenodd" clip-rule="evenodd" d="M36.664 18.1824L27.2676 26.7052L12.1294 40.4099L11.4859 41.0174C10.5618 41.7813 9.63788 42.1679 8.78741 42.2554C8.61272 42.2738 8.44257 42.2784 8.2771 42.2738C8.44726 44.2113 9.99179 45.5688 11.9318 45.371C12.7823 45.2835 13.7109 44.897 14.6302 44.1331L15.2738 43.5256L30.4119 29.8209L39.8084 21.2981L43.5918 17.8696C45.9638 15.7021 47.366 13.507 48.0188 11.4545C48.1658 11.0035 48.2716 10.5617 48.3452 10.1292C48.8463 7.22993 48.9659 3.46087 47.173 1.88697C46.6674 1.43134 46.0054 1.15072 45.2469 1.00337C45.6929 2.79353 45.5319 5.09447 45.201 7.01822C45.1274 7.45087 45.0218 7.88806 44.8746 8.339C44.2218 10.3915 42.8198 12.5867 40.4477 14.7542L36.664 18.1824Z" fill="#CECECE"/>
<path fill-rule="evenodd" clip-rule="evenodd" d="M43.7709 44.1004L32.7105 27.7359L30.4119 29.8206L41.4678 46.1851C42.617 47.9294 43.8031 48.4125 45.2328 46.7972L46.2672 45.6328C45.3706 45.909 44.5616 45.3062 43.7709 44.1004V44.1004Z" fill="#838383"/>
<path fill-rule="evenodd" clip-rule="evenodd" d="M49.4852 27.216L44.957 32.3195L46.1202 34.8092L51.37 28.8956C52.3353 27.805 52.2342 26.1253 51.1494 25.1588L49.2738 23.4883V23.4928C50.3494 24.4594 50.4459 26.1344 49.4852 27.216Z" fill="#595959"/>
<path fill-rule="evenodd" clip-rule="evenodd" d="M20.6331 8.78902L23.0474 9.5859L25.9665 6.29543C26.9318 5.20934 26.8354 3.52512 25.7459 2.55855L24.284 1.25621C25.3643 2.2273 25.1979 3.8234 24.2142 4.89574L20.6331 8.78902Z" fill="#595959"/>
<path fill-rule="evenodd" clip-rule="evenodd" d="M23.1118 19.4524L5.57868 10.3819C4.27306 9.7285 3.579 8.98288 3.77212 8.0396L2.84353 9.08428C1.40931 10.6996 2.02525 11.8179 3.89165 12.7566L21.4293 21.8271L23.1118 19.4524Z" fill="#838383"/>
<path fill-rule="evenodd" clip-rule="evenodd" d="M23.746 49.3287L17.2596 41.7494L15.2876 43.5394L21.774 51.1187C22.6704 52.4855 23.599 52.8583 24.716 51.5973L25.6538 50.5434C24.9735 50.7231 24.3529 50.2491 23.746 49.3287Z" fill="#838383"/>
<path fill-rule="evenodd" clip-rule="evenodd" d="M11.2008 36.2173L2.99051 30.8469C2.00676 30.3498 1.46895 29.793 1.56535 29.0936L0.618321 30.1612C-0.503398 31.4176 -0.0207417 32.2966 1.4366 33.0283L9.65145 38.3987L11.2008 36.2173Z" fill="#838383"/>
<path fill-rule="evenodd" clip-rule="evenodd" d="M80.0003 45.4582C80.0003 32.6923 72.9851 21.5693 62.6051 15.7342C62.0489 15.4212 61.4789 15.1221 60.8997 14.8368C66.4667 22.2092 69.9145 32.4348 69.9145 43.7371C69.9145 45.2789 69.8501 46.7974 69.7261 48.2885C70.4386 52.6235 79.1547 53.0285 79.9178 47.9157C79.9726 47.1057 80.0003 46.2865 80.0003 45.4582Z" fill="#4FC122"/>
<path fill-rule="evenodd" clip-rule="evenodd" d="M79.9174 47.9157C79.1543 53.0285 70.4383 52.6235 69.7257 48.2885C69.3901 52.2876 68.6269 56.1072 67.4915 59.6646C69.9004 60.3733 72.3275 61.8044 74.456 64.1055C77.5454 59.3929 79.4946 53.8613 79.9174 47.9157V47.9157Z" fill="#6BD9E7"/>
<path fill-rule="evenodd" clip-rule="evenodd" d="M67.4917 59.6645C65.0691 67.2762 60.9594 73.6959 55.7969 78.0908C63.5383 75.7529 70.1213 70.7322 74.4563 64.1054C72.3278 61.8045 69.9006 60.3733 67.4917 59.6645V59.6645Z" fill="#4FC122"/>
<path d="M43.1535 11.8061C42.5409 11.8061 42.0137 11.3447 41.9456 10.7214C41.7968 9.36263 40.1793 7.87826 38.9585 7.97732C38.2882 8.03498 37.7005 7.53623 37.6445 6.86623C37.5884 6.19638 38.0857 5.6081 38.7554 5.55201C41.2929 5.33685 44.0706 7.76873 44.3648 10.4565C44.4379 11.1245 43.9557 11.7254 43.2877 11.7986C43.2424 11.8037 43.1977 11.8061 43.1535 11.8061V11.8061Z" fill="#838383"/>
</svg>
