<svg width="112" height="82" viewBox="0 0 112 82" fill="none" xmlns="http://www.w3.org/2000/svg">
<path d="M16.6628 24.6956C16.6628 40.9676 29.4884 61.3783 57.4839 75.9071C61.5298 78.0068 66.3485 78.0068 70.3944 75.9071C98.3901 61.3783 111.215 40.9678 111.215 24.6956C111.215 11.0566 99.4523 0 84.9415 0C76.8018 0 69.528 3.48 64.7087 8.94244C64.298 9.408 63.5801 9.408 63.1694 8.94244C58.3503 3.48 51.0763 0 42.9368 0C28.426 0 16.6628 11.0566 16.6628 24.6956V24.6956Z" fill="#EDA1AB"/>
<path d="M41.28 0.0538292C27.5419 0.858122 16.6628 11.5801 16.6628 24.6956C16.6628 40.9678 29.4888 61.3789 57.4853 75.9077C61.5263 78.0047 66.352 78.0047 70.393 75.9077C79.3688 71.2497 86.7826 65.9865 92.7169 60.4495C51.2691 62.2632 29.7145 13.061 41.28 0.0538292V0.0538292Z" fill="#E58996"/>
<path d="M45.1574 36.5499C48.9849 36.5499 52.0876 34.079 52.0876 31.0311C52.0876 27.9831 48.9849 25.5122 45.1574 25.5122C41.33 25.5122 38.2273 27.9831 38.2273 31.0311C38.2273 34.079 41.33 36.5499 45.1574 36.5499Z" fill="white"/>
<path d="M82.7207 36.5501C86.5481 36.5501 89.6508 34.0792 89.6508 31.0312C89.6508 27.9833 86.5481 25.5124 82.7207 25.5124C78.8933 25.5124 75.7905 27.9833 75.7905 31.0312C75.7905 34.0792 78.8933 36.5501 82.7207 36.5501Z" fill="white"/>
<path d="M52.4948 26.489C51.6864 26.489 51.0314 25.834 51.0314 25.0256C51.0314 24.0137 50.2082 23.1907 49.1963 23.1907C48.1844 23.1907 47.3612 24.0139 47.3612 25.0256C47.3612 25.834 46.7061 26.489 45.8977 26.489C45.0894 26.489 44.4343 25.834 44.4343 25.0256C44.4343 22.3998 46.5705 20.2638 49.1963 20.2638C51.822 20.2638 53.9582 22.3998 53.9582 25.0256C53.9582 25.8338 53.303 26.489 52.4948 26.489Z" fill="#4E5660"/>
<path d="M81.9807 26.4889C81.1723 26.4889 80.5172 25.8338 80.5172 25.0255C80.5172 24.0135 79.694 23.1905 78.6821 23.1905C77.67 23.1905 76.847 24.0137 76.847 25.0255C76.847 25.8338 76.192 26.4889 75.3836 26.4889C74.5752 26.4889 73.9202 25.8338 73.9202 25.0255C73.9202 22.3997 76.0564 20.2637 78.6821 20.2637C81.3079 20.2637 83.4441 22.3997 83.4441 25.0255C83.4441 25.8336 82.7888 26.4889 81.9807 26.4889V26.4889Z" fill="#4E5660"/>
<path d="M63.939 31.9384C62.1751 31.9384 60.4977 31.1745 59.3367 29.8426C58.8058 29.2332 58.8692 28.3089 59.4786 27.7778C60.0877 27.2469 61.0122 27.3103 61.5433 27.9197C62.1482 28.6137 63.0214 29.0117 63.939 29.0117C64.8567 29.0117 65.7301 28.6137 66.3346 27.9198C66.8653 27.3103 67.7898 27.2471 68.3991 27.778C69.0085 28.3089 69.0721 29.2334 68.5412 29.8426C67.3806 31.1743 65.7031 31.9384 63.939 31.9384V31.9384Z" fill="#4E5660"/>
<path fill-rule="evenodd" clip-rule="evenodd" d="M21.2909 47.4525L17.0302 60.2472C16.3695 62.2313 14.2006 63.6047 11.7279 63.6047H4.42683C2.81039 63.6047 1.5 62.5136 1.5 61.1676C1.5 59.8216 2.81039 58.7304 4.42683 58.7304H11.4608L15.9952 45.1136C17.4938 40.6136 25.1701 40.6456 26.6144 45.1579L35.8337 73.96L45.0879 45.2157C46.5433 40.6952 54.2423 40.686 55.7133 45.2029L65.1993 74.3301L69.4314 62.0486C70.1084 60.0841 72.266 58.7304 74.7204 58.7304H80.5244C82.1408 58.7304 83.4512 59.8216 83.4512 61.1676C83.4512 62.5136 82.1408 63.6047 80.5244 63.6047H74.9851L70.4787 76.6819C68.9426 81.1398 61.3368 81.0935 59.8791 76.6174L50.4047 47.5255L41.1475 76.2789C39.6888 80.8094 31.9666 80.8048 30.5159 76.2725L21.2909 47.4525ZM35.4935 75.0167C35.4934 75.0169 35.4934 75.0169 35.4935 75.0166Z" fill="#51BD8D" stroke="white" stroke-width="3"/>
</svg>
