<svg width="99" height="80" viewBox="0 0 99 80" fill="none" xmlns="http://www.w3.org/2000/svg">
<path fill-rule="evenodd" clip-rule="evenodd" d="M13.0347 57.6963C12.5445 58.4571 8.19999 65.2763 7.6442 63.6896C6.79916 61.2877 3.57344 60.6503 1.75216 61.7242C-0.829451 63.2412 0.980466 68.5279 3.5848 68.5279H9.64317L19.3317 67.8094C26.42 59.8202 26.7439 50.6766 20.6669 40.4396C15.512 40.4437 13.5016 43.4711 13.5053 51.0124V52.1859C13.5053 54.704 13.8834 56.3951 13.0347 57.6963V57.6963Z" fill="#F5B97D"/>
<path fill-rule="evenodd" clip-rule="evenodd" d="M52.0522 68.5434H58.1101C60.7144 68.5434 62.5243 63.2608 59.9427 61.7397C58.1214 60.6699 54.8957 61.3068 54.0507 63.7087C53.4913 65.296 49.1504 58.4726 48.6607 57.7159C47.8115 56.4106 48.1896 54.7231 48.1896 52.2056V51.0315C48.1896 43.4866 46.1834 40.4628 41.0279 40.4592C41.0321 40.4592 41.0321 40.4628 41.0357 40.4628C33.4422 51.2211 35.4644 68.4969 52.0522 68.5434V68.5434Z" fill="#F5B97D"/>
<path fill-rule="evenodd" clip-rule="evenodd" d="M19.3317 50.4912C18.7181 49.2247 18.5946 47.6952 18.6101 46.3321C18.622 45.9272 18.6566 45.5212 18.7103 45.1162C18.9572 43.297 19.6096 41.5558 20.6669 40.4396H41.028C42.4211 41.9148 43.0192 44.3321 43.0848 46.3321C43.1003 47.5909 42.9691 49.2282 42.3633 50.5102V62.6432L31.76 67.4815L19.3318 62.6432V50.4913C19.3318 50.4913 19.3317 50.4913 19.3317 50.4912Z" fill="#D52789"/>
<path fill-rule="evenodd" clip-rule="evenodd" d="M13.7676 65.7629L32.4045 74.3698L47.9272 65.7629L42.3631 62.6431H19.3316L13.7676 65.7629Z" fill="#4BACE1"/>
<path fill-rule="evenodd" clip-rule="evenodd" d="M32.4045 70.4933C20.6782 70.4933 17.6725 80 20.5238 80H25.7831C26.7557 75.5284 28.9778 72.3812 32.4045 70.4933V70.4933Z" fill="#F5B97D"/>
<path fill-rule="evenodd" clip-rule="evenodd" d="M9.64263 68.5279C6.73354 72.5899 7.87558 80 16.2604 80H20.5238C17.6726 80 20.6783 70.4933 32.4045 70.4933C26.7862 66.9985 18.4866 64.7474 13.7676 65.7629C12.6524 66.1606 10.6152 67.1916 9.65812 68.5046C9.65451 68.5083 9.65451 68.5124 9.65037 68.5165C9.64676 68.5201 9.64676 68.5238 9.64263 68.5279Z" fill="#94D9F8"/>
<path fill-rule="evenodd" clip-rule="evenodd" d="M32.4046 70.4933C28.9779 72.3817 26.7558 75.5284 25.7832 80H46.2181C52.8855 80 54.3364 72.3156 52.1024 68.5279H52.0523C51.1034 67.2035 49.0466 66.1606 47.9278 65.7629C41.7961 65.3151 35.9273 68.4349 32.4046 70.4933V70.4933Z" fill="#94D9F8"/>
<path fill-rule="evenodd" clip-rule="evenodd" d="M8.33484 71.6364C7.6055 75.5325 9.75116 80 16.2605 80H20.5239C19.4821 80 19.2238 78.7335 19.8798 77.1271H16.2605C11.3328 77.1271 8.90612 74.5708 8.33484 71.6364Z" fill="#4BACE1"/>
<path fill-rule="evenodd" clip-rule="evenodd" d="M19.8798 77.1271C19.2238 78.7335 19.4821 80 20.5239 80H25.7832C26.0069 78.9731 26.2966 78.0155 26.6515 77.1271H19.8798Z" fill="#E3AA75"/>
<path fill-rule="evenodd" clip-rule="evenodd" d="M26.6515 77.127C26.2966 78.0155 26.0069 78.9731 25.7832 80H46.2181C51.6122 80 53.5957 74.9649 52.9666 71.0341C52.4764 74.1808 50.3467 77.127 46.2181 77.127H26.6515Z" fill="#4BACE1"/>
<path fill-rule="evenodd" clip-rule="evenodd" d="M0.694771 63.0289C-0.0655598 65.1606 1.5052 68.5279 3.58475 68.5279H9.6426L9.65035 68.516L9.6581 68.5046C10.484 67.3693 12.1163 66.4463 13.2619 65.9597L9.7082 66.2226H3.65035C2.24591 66.2226 1.07287 64.6859 0.694771 63.0289V63.0289Z" fill="#E3AA75"/>
<path fill-rule="evenodd" clip-rule="evenodd" d="M48.2166 65.8714C49.3741 66.3347 51.1799 67.3114 52.0523 68.5279H52.1024C52.106 68.5315 52.106 68.5392 52.1101 68.5434H58.1101C60.1127 68.5434 61.6442 65.423 61.0735 63.2877C60.6411 64.8481 59.5146 66.2417 58.1794 66.2417H52.1174C50.7171 66.2381 49.417 66.1105 48.2166 65.8714V65.8714Z" fill="#E3AA75"/>
<path fill-rule="evenodd" clip-rule="evenodd" d="M35.8271 40.4401V35.0108L30.8612 33.0609L25.8684 34.9757V40.4401C25.8684 43.1932 28.0983 45.4251 30.8457 45.4251C33.5967 45.4251 35.8271 43.1932 35.8271 40.4401Z" fill="#F5B97D"/>
<path fill-rule="evenodd" clip-rule="evenodd" d="M35.8271 38.7639V35.0387C34.1794 35.923 32.4278 36.5842 30.8612 36.673C29.5802 36.6105 27.7165 36.0429 25.8684 35.0041V38.6715L25.9185 38.7025C27.7667 39.7371 29.6303 40.3089 30.9113 40.2355C31.6907 40.1927 32.5161 40.0382 33.3498 39.7877C33.9402 39.61 33.7589 40.2701 33.7548 40.4401V40.8378C33.7548 42.8962 32.5089 44.6642 30.73 45.4215C30.7687 45.4251 30.8069 45.4251 30.8457 45.4251C33.5967 45.4251 35.8271 43.1932 35.8271 40.4401V38.7639Z" fill="#E3AA75"/>
<path d="M18.9285 16.8902C22.0225 16.8902 24.5306 14.382 24.5306 11.2881C24.5306 8.1941 22.0225 5.68595 18.9285 5.68595C15.8346 5.68595 13.3264 8.1941 13.3264 11.2881C13.3264 14.382 15.8346 16.8902 18.9285 16.8902Z" fill="#E6646E"/>
<path d="M42.9376 16.8901C46.0315 16.8901 48.5397 14.3819 48.5397 11.288C48.5397 8.19401 46.0315 5.68586 42.9376 5.68586C39.8436 5.68586 37.3354 8.19401 37.3354 11.288C37.3354 14.3819 39.8436 16.8901 42.9376 16.8901Z" fill="#E6646E"/>
<path d="M43.3216 25.6936C44.0962 23.9836 44.5383 22.0909 44.5383 20.0915C44.5383 12.5774 38.4471 6.48623 30.9331 6.48623C23.4191 6.48623 17.3279 12.5774 17.3279 20.0914C17.3279 22.0909 17.7699 23.9835 18.5446 25.6935L43.3216 25.6936Z" fill="#DC4655"/>
<path d="M41.7372 23.2925H41.3371V22.4922C41.3371 16.7462 36.679 12.0882 30.9331 12.0882C25.1872 12.0882 20.5291 16.7462 20.5291 22.4922V23.2925H20.1289C19.0239 23.2925 18.1282 24.1883 18.1282 25.2933C18.1282 26.3983 19.0239 27.294 20.1289 27.294H20.5695C20.9794 32.6648 25.4572 36.8977 30.9331 36.8977C36.4089 36.8977 40.8867 32.6648 41.2967 27.294H41.7372C42.8422 27.294 43.738 26.3983 43.738 25.2933C43.738 24.1883 42.8422 23.2925 41.7372 23.2925Z" fill="#F5B97D"/>
<path d="M23.7303 26.4939V22.4924C23.7303 21.6991 23.8197 20.9273 23.9887 20.1861C24.4692 18.0788 26.8634 17.1055 28.7434 18.1719C32.5261 20.3176 36.8079 21.5326 41.2954 21.668C40.8614 16.1474 36.1281 11.8356 30.4374 12.0999C24.8343 12.36 20.5291 16.7558 20.5291 22.6757V23.2927H20.2431C19.0698 23.2927 18.2428 24.0457 18.1385 25.087C18.0186 26.2846 18.9559 27.2942 20.1289 27.2942H20.5695C20.9794 32.6649 25.4572 36.8979 30.9331 36.8979C31.4805 36.8979 32.0143 36.8446 32.5387 36.763C27.5522 35.9934 23.7303 31.6958 23.7303 26.4939Z" fill="#E3AA75"/>
<path d="M30.933 32.0959C29.7317 32.0959 28.6242 31.7106 27.9701 31.0651C27.6551 30.754 27.652 30.2476 27.9622 29.9335C28.2741 29.6185 28.7806 29.6154 29.0939 29.9256C29.3604 30.1882 30.0013 30.4953 30.9329 30.4953C31.8645 30.4953 32.5054 30.1882 32.7719 29.9256C33.0853 29.6153 33.5918 29.6185 33.9035 29.9335C34.2138 30.2476 34.2106 30.7541 33.8957 31.0651C33.2417 31.7106 32.1342 32.0959 30.933 32.0959Z" fill="#B67F5F"/>
<path d="M26.1314 25.6935C25.689 25.6935 25.3311 25.3355 25.3311 24.8932V24.0929C25.3311 23.6505 25.689 23.2926 26.1314 23.2926C26.5737 23.2926 26.9317 23.6506 26.9317 24.0929V24.8932C26.9317 25.3355 26.5737 25.6935 26.1314 25.6935Z" fill="#5A4650"/>
<path d="M35.7349 25.6935C35.2925 25.6935 34.9346 25.3355 34.9346 24.8932V24.0929C34.9346 23.6505 35.2926 23.2926 35.7349 23.2926C36.1773 23.2926 36.5352 23.6506 36.5352 24.0929V24.8932C36.5352 25.3355 36.1773 25.6935 35.7349 25.6935Z" fill="#5A4650"/>
<path d="M26.1313 22.4922C26.125 22.4922 26.1188 22.4922 26.1118 22.4922L25.3115 22.4726C24.8699 22.4617 24.5206 22.0944 24.5307 21.6527C24.5417 21.2174 24.898 20.872 25.331 20.872C25.3373 20.872 25.3435 20.872 25.3506 20.8724L26.1509 20.892C26.5924 20.9025 26.9418 21.2694 26.9316 21.7115C26.9207 22.1468 26.5642 22.4922 26.1313 22.4922Z" fill="#6E5A64"/>
<path d="M35.7348 22.4923C35.3018 22.4923 34.9455 22.1468 34.9345 21.7115C34.9244 21.2696 35.2737 20.9026 35.7153 20.8921L36.5156 20.8725C36.9892 20.8525 37.3245 21.2113 37.3354 21.6528C37.3456 22.0943 36.9962 22.4617 36.5547 22.4727L35.7544 22.4923C35.7481 22.4923 35.7411 22.4923 35.7348 22.4923Z" fill="#6E5A64"/>
<path d="M30.9331 6.48623C27.4104 6.48623 24.2111 7.8364 21.7949 10.0329C26.4752 16.1458 33.8438 20.0914 42.1374 20.0914C42.9454 20.0914 43.7435 20.0495 44.5324 19.9762C44.4698 12.5159 38.4082 6.48623 30.9331 6.48623Z" fill="#E6646E"/>
<path d="M75.8926 45C88.319 45 98.3926 34.9264 98.3926 22.5C98.3926 10.0736 88.319 0 75.8926 0C63.4662 0 53.3926 10.0736 53.3926 22.5C53.3926 34.9264 63.4662 45 75.8926 45Z" fill="#49DB95"/>
<path d="M75.8926 40.1863C85.6603 40.1863 93.5786 32.268 93.5786 22.5003C93.5786 12.7326 85.6603 4.81424 75.8926 4.81424C66.1249 4.81424 58.2065 12.7326 58.2065 22.5003C58.2065 32.268 66.1249 40.1863 75.8926 40.1863Z" fill="#F2F2F2"/>
<path d="M75.9322 4.81424C75.4608 4.81424 74.994 4.83315 74.532 4.86956C83.623 5.58488 90.778 13.2049 90.778 22.5003C90.778 31.7957 83.6231 39.4155 74.532 40.131C74.994 40.1674 75.4609 40.1863 75.9322 40.1863C85.678 40.1863 93.5785 32.2681 93.5785 22.5003C93.5785 12.7325 85.6779 4.81424 75.9322 4.81424Z" fill="#CCCCCC"/>
<path d="M75.8926 41.023C65.6789 41.023 57.3694 32.7134 57.3694 22.4997C57.3694 12.2859 65.679 3.97644 75.8926 3.97644C86.1064 3.97644 94.4159 12.2859 94.4159 22.4997C94.4159 32.7136 86.1064 41.023 75.8926 41.023ZM75.8926 5.72711C66.6441 5.72711 59.12 13.2512 59.12 22.4997C59.12 31.7483 66.6441 39.2724 75.8926 39.2724C85.1411 39.2724 92.6652 31.7481 92.6652 22.4997C92.6652 13.2514 85.1411 5.72711 75.8926 5.72711Z" fill="#3BBC7B"/>
<path d="M63.6844 25.3253C63.263 25.3253 62.892 25.0172 62.8224 24.5841C62.7453 24.1034 63.0692 23.6506 63.5459 23.5728L75.8202 21.5692C76.2972 21.4915 76.7458 21.8182 76.823 22.2989C76.9 22.7797 76.5763 23.2325 76.0995 23.3103L63.8252 25.3139C63.7778 25.3215 63.7308 25.3253 63.6844 25.3253Z" fill="#73CAEF"/>
<path d="M74.3228 20.9047L74.5959 20.6354L80.4574 14.8586C81.3044 14.0238 82.6777 14.0238 83.5247 14.8586C84.3717 15.6933 84.3717 17.0469 83.5247 17.8816L78.945 22.3953" fill="#3B94BC"/>
<path d="M86.4445 33.0524C87.3054 32.1915 87.3054 30.7958 86.4445 29.935L77.4579 20.9483C76.597 20.0874 75.2013 20.0874 74.3405 20.9483C73.4796 21.8092 73.4796 23.2049 74.3405 24.0657L83.3271 33.0523C84.188 33.9132 85.5837 33.9132 86.4445 33.0524Z" fill="#47A7DD"/>
</svg>
