<svg width="95" height="80" viewBox="0 0 95 80" fill="none" xmlns="http://www.w3.org/2000/svg">
<path d="M82.9678 58.3492C82.9678 57.4039 83.2908 56.5416 83.8259 55.8655C84.1469 55.4599 84.1469 54.8785 83.8259 54.4729C83.2908 53.7968 82.9678 52.9347 82.9678 51.9894C82.9678 51.5372 82.9836 44.8957 82.9836 44.8957H86.2885C87.6782 45.518 88.6604 47.0182 88.6604 48.7764C88.6604 49.7802 88.3374 50.6957 87.8023 51.4136C87.4813 51.8445 87.4813 52.4619 87.8023 52.8925C88.3374 53.6105 88.6604 54.5261 88.6604 55.53C88.6604 56.5691 88.3152 57.5149 87.7465 58.2438C87.3742 58.721 87.3742 59.3913 87.7465 59.8686C88.3153 60.5977 88.6604 61.5435 88.6604 62.5826C88.6604 64.8196 86.7629 66.7172 86.7629 66.7172L82.9679 65.7684C82.9679 65.7684 82.9679 63.8709 83.8818 62.4347C84.1951 61.9424 84.2541 61.354 83.8818 60.9047C83.3128 60.2183 82.9678 59.3277 82.9678 58.3492Z" fill="#FF8250"/>
<path d="M62.0948 58.3492C62.0948 57.4039 61.7717 56.5416 61.2367 55.8655C60.9157 55.4599 60.9157 54.8785 61.2367 54.4729C61.7717 53.7968 62.0948 52.9347 62.0948 51.9894C62.0948 51.5372 62.0789 44.8957 62.0789 44.8957H58.774C57.3843 45.518 56.4021 47.0182 56.4021 48.7764C56.4021 49.7802 56.7252 50.6957 57.2602 51.4136C57.5812 51.8445 57.5812 52.4619 57.2602 52.8925C56.7252 53.6105 56.4021 54.5261 56.4021 55.53C56.4021 56.5691 56.7473 57.5149 57.316 58.2438C57.6883 58.721 57.6883 59.3913 57.316 59.8686C56.7472 60.5977 56.4021 61.5435 56.4021 62.5826C56.4021 64.8196 58.2996 66.7172 58.2996 66.7172L62.0946 65.7684C62.0946 65.7684 62.0946 63.8709 61.1807 62.4347C60.8674 61.9424 60.8085 61.354 61.1807 60.9047C61.7496 60.2183 62.0948 59.3277 62.0948 58.3492Z" fill="#FF8250"/>
<path d="M72.5313 21.1768C64.1475 21.1768 57.3511 27.9732 57.3511 36.357V43.4783H87.7115V36.357C87.7115 27.9732 80.9151 21.1768 72.5313 21.1768Z" fill="#FF8250"/>
<path d="M90.5548 67.2743L80.7557 63.8158C79.2384 63.2803 78.2237 61.8461 78.2237 60.2371V52.4857H66.8384V60.2371C66.8384 61.8461 65.8237 63.2803 64.3064 63.8158L54.5074 67.2743C52.2314 68.0776 50.7095 70.2288 50.7095 72.6423V77.1537C50.7095 78.7256 51.9838 79.9999 53.5557 79.9999H91.5064C93.0783 79.9999 94.3527 78.7256 94.3527 77.1537V72.6423C94.3527 70.2288 92.8307 68.0776 90.5548 67.2743Z" fill="#F7D291"/>
<path d="M90.5547 67.2747L82.9315 64.5842C82.5636 70.0141 78.0542 74.3077 72.531 74.3077C67.0078 74.3077 62.4984 70.0141 62.1305 64.5842L54.5074 67.2747C52.2314 68.0779 50.7095 70.2292 50.7095 72.6427V77.154C50.7095 78.7259 51.9838 80.0003 53.5557 80.0003H91.5064C93.0783 80.0003 94.3527 78.7259 94.3527 77.154V72.6427C94.3526 70.2292 92.8306 68.0779 90.5547 67.2747Z" fill="#E3AA75"/>
<path d="M66.8385 57.9529C68.5846 58.7093 70.51 59.1269 72.531 59.1269C74.5521 59.1269 76.4775 58.7092 78.2236 57.9529V54.3831H66.8384L66.8385 57.9529Z" fill="#F0C382"/>
<path d="M85.3394 41.1005C85.3394 41.1005 84.0689 40.9474 83.6803 40.8399C81.5247 40.243 76.8579 38.3794 73.3228 32.9307C72.9503 32.3566 72.1118 32.3566 71.7393 32.9307C68.2042 38.3793 63.5374 40.243 61.3818 40.8399C60.9932 40.9474 59.7227 41.1005 59.7227 41.1005C58.3321 41.1005 57.221 42.2971 57.3631 43.7169C57.4867 44.9514 58.6172 45.8442 59.8579 45.8442H60.245C60.731 52.2113 66.0394 57.2295 72.531 57.2295C79.0227 57.2295 84.3311 52.2113 84.8171 45.8442H85.2042C86.4449 45.8442 87.5755 44.9514 87.699 43.7169C87.8411 42.2971 86.73 41.1005 85.3394 41.1005Z" fill="#FFE1A0"/>
<path d="M83.6804 40.8398C81.5271 40.2434 76.8678 38.3831 73.334 32.9476C72.956 32.3661 72.1069 32.3652 71.7289 32.9466C69.2879 36.7017 66.3106 38.7495 63.9923 39.8542C62.9544 40.3487 62.0479 40.6554 61.382 40.8398C60.9934 40.9473 59.7229 41.1003 59.7229 41.1003C58.3323 41.1003 57.2213 42.2969 57.3633 43.7167C57.4868 44.9513 58.6173 45.8442 59.8582 45.8442H60.2452C60.7312 52.2113 66.0397 57.2294 72.5313 57.2294C73.1783 57.2294 73.8086 57.1647 74.4288 57.0686C69.0119 56.2299 64.7554 51.879 64.0846 46.4103C63.985 45.5979 64.0075 44.7734 64.1084 43.961C64.1905 43.2991 64.3869 42.6434 64.7708 42.098C65.1084 41.6186 65.5474 41.2137 66.0663 40.9194C68.1417 39.7422 70.4649 37.923 72.5313 35.1199C75.0066 38.4776 77.8503 40.4236 80.1954 41.5455C81.8682 42.3459 83.8379 42.1882 85.3396 41.1002C85.3395 41.1003 84.0688 40.9474 83.6804 40.8398Z" fill="#F7D291"/>
<path d="M66.8394 44.0291C66.3149 44.0291 65.8906 43.6043 65.8906 43.0804V42.1316C65.8906 41.6077 66.315 41.1829 66.8394 41.1829C67.3639 41.1829 67.7881 41.6077 67.7881 42.1316V43.0804C67.7881 43.6044 67.3637 44.0291 66.8394 44.0291Z" fill="#6E5A64"/>
<path d="M78.2244 44.0293C77.6999 44.0293 77.2756 43.6045 77.2756 43.0806V42.1318C77.2756 41.6079 77.7 41.1831 78.2244 41.1831C78.7487 41.1831 79.1731 41.6079 79.1731 42.1318V43.0806C79.1733 43.6046 78.7489 44.0293 78.2244 44.0293Z" fill="#6E5A64"/>
<path d="M78.2229 59.1272L78.2238 59.1275V59.0967L78.2229 59.1272Z" fill="#FFD164"/>
<path d="M66.8386 59.0965V59.1273L66.8395 59.127L66.8386 59.0965Z" fill="#FFD164"/>
<path d="M75.2814 21.4379C74.7379 22.8288 74.4287 24.3372 74.4287 25.9206C74.4287 32.7324 79.9509 38.2545 86.7627 38.2545C87.083 38.2545 87.3973 38.2305 87.7114 38.2066V36.357C87.7113 28.9136 82.3502 22.7335 75.2814 21.4379Z" fill="#FF9664"/>
<path d="M68.78 47.3467C68.4813 47.3467 68.2593 47.6197 68.309 47.9143C68.6171 49.741 70.3901 51.1417 72.531 51.1417C74.672 51.1417 76.4449 49.741 76.7531 47.9143C76.8027 47.6197 76.5808 47.3467 76.2821 47.3467H68.78Z" fill="white"/>
<path d="M72.5312 79.0515C80.1204 79.0515 86.3906 73.4762 87.5143 66.2016L82.9315 64.5842C82.5637 70.0141 78.0543 74.3077 72.5311 74.3077C67.0079 74.3077 62.4984 70.0141 62.1306 64.5842L57.5479 66.2016C58.6717 73.4762 64.9419 79.0515 72.5312 79.0515Z" fill="#D29B6E"/>
<path d="M72.531 77.1537C79.2937 77.1537 84.8637 72.0959 85.6948 65.5591L81.0672 63.9259C81.0373 68.6162 77.2285 72.4099 72.5311 72.4099C67.8338 72.4099 64.0248 68.6161 63.9951 63.9259L59.3674 65.5591C60.1983 72.0959 65.7684 77.1537 72.531 77.1537Z" fill="#EDEBED"/>
<path d="M41.6527 43.5024L31.726 40.5828C30.5234 40.2292 29.6977 39.1255 29.6977 37.872V33.3933H16.5116V37.872C16.5116 39.1255 15.6858 40.2291 14.4833 40.5828L4.55664 43.5024C2.15165 44.2098 0.5 46.4171 0.5 48.9239V55.9978C0.5 57.5584 1.76505 58.8234 3.3256 58.8234H42.8837C44.4443 58.8234 45.7093 57.5584 45.7093 55.9978V48.9239C45.7093 46.4171 44.0578 44.2098 41.6527 43.5024Z" fill="#E3AA75"/>
<path d="M41.6527 43.5025L31.726 40.583C31.5581 40.5336 31.3997 40.4665 31.2478 40.3895L23.1042 41.8701L14.9615 40.3895C14.8096 40.4665 14.6512 40.5336 14.4833 40.583L4.55664 43.5025C2.15154 44.2099 0.5 46.4172 0.5 48.9241V55.9981C0.5 57.5585 1.76505 58.8235 3.3256 58.8235H42.8837C44.4443 58.8235 45.7093 57.5585 45.7093 55.9979V48.9239C45.7093 46.4172 44.0578 44.2099 41.6527 43.5025Z" fill="#E6646E"/>
<path d="M11.9648 42.7413L16.6317 46.7415C17.3141 47.3264 18.1844 47.6486 19.0824 47.6486C20.2338 47.6486 21.3065 47.1332 22.0254 46.2346L23.1045 44.8856L24.1837 46.2345C24.9026 47.1332 25.9752 47.6484 27.1267 47.6484C28.0247 47.6484 28.895 47.3263 29.5774 46.7414L34.2443 42.7413C34.6227 42.4168 34.8833 42.0028 35.0294 41.5546L31.7259 40.583C31.558 40.5336 31.3996 40.4665 31.2477 40.3895L23.1041 41.8701L14.9614 40.3895C14.8095 40.4665 14.6511 40.5336 14.4832 40.583L11.1797 41.5546C11.3258 42.0029 11.5864 42.4169 11.9648 42.7413Z" fill="#DC4655"/>
<path d="M16.5117 35.4951C18.4905 36.552 20.7345 37.1607 23.1048 37.1607C25.4751 37.1607 27.7191 36.552 29.6978 35.4951V33.3933H16.5117V35.4951Z" fill="#D29B6E"/>
<path d="M35.8197 19.2656H35.3488V8.9051H10.8605V19.2655H10.3896C9.08914 19.2655 8.03491 20.3197 8.03491 21.6202C8.03491 22.9206 9.08914 23.9748 10.3896 23.9748H10.9081C11.3905 30.2955 16.6604 35.2771 23.1047 35.2771C29.5489 35.2771 34.8188 30.2955 35.3012 23.9748H35.8197C37.1202 23.9748 38.1744 22.9206 38.1744 21.6202C38.1744 20.3199 37.1203 19.2656 35.8197 19.2656Z" fill="#F5B97D"/>
<path d="M31.5813 10.7888V8.9051H10.8604V19.2655H10.5239C9.29217 19.2655 8.16981 20.1517 8.04711 21.3772C7.90591 22.7867 9.00897 23.9747 10.3896 23.9747H10.9081C11.3905 30.2954 16.6604 35.277 23.1047 35.277C23.749 35.277 24.3772 35.2143 24.9943 35.1182C19.1258 34.2126 14.6279 29.1548 14.6279 23.0328V16.4397C14.6279 14.359 16.3146 12.6722 18.3953 12.6722H29.6976C30.7379 12.6726 31.5813 11.8293 31.5813 10.7888Z" fill="#E3AA75"/>
<path d="M23.1048 41.8699L15.4879 37.6383C15.0192 37.3778 14.4279 37.5608 14.188 38.0404L13.0073 40.4019C12.8527 40.7111 12.9284 41.0859 13.1909 41.3109L17.8577 45.311C18.6667 46.0043 19.8891 45.8895 20.5545 45.0575L23.1048 41.8699Z" fill="#E6646E"/>
<path d="M23.1047 41.8699L30.7216 37.6383C31.1903 37.3778 31.7815 37.5608 32.0214 38.0404L33.2022 40.4019C33.3568 40.7111 33.2811 41.0859 33.0186 41.3109L28.3517 45.311C27.5428 46.0043 26.3204 45.8895 25.6549 45.0575L23.1047 41.8699Z" fill="#E6646E"/>
<path d="M17.4536 22.1724C16.933 22.1724 16.5117 21.7507 16.5117 21.2306V20.2887C16.5117 19.7686 16.933 19.3468 17.4536 19.3468C17.9742 19.3468 18.3955 19.7686 18.3955 20.2887V21.2306C18.3955 21.7508 17.9743 22.1724 17.4536 22.1724Z" fill="#5A4650"/>
<path d="M28.7561 22.1726C28.2355 22.1726 27.8142 21.7509 27.8142 21.2308V20.2889C27.8142 19.7688 28.2355 19.347 28.7561 19.347C29.2766 19.347 29.6979 19.7688 29.6979 20.2889V21.2308C29.6979 21.751 29.2766 22.1726 28.7561 22.1726Z" fill="#5A4650"/>
<path d="M18.3954 18.3234H16.5117C15.9911 18.3234 15.5698 17.9017 15.5698 17.3816C15.5698 16.8615 15.9911 16.4397 16.5117 16.4397H18.3954C18.916 16.4397 19.3373 16.8615 19.3373 17.3816C19.3373 17.9017 18.9161 18.3234 18.3954 18.3234Z" fill="#6E5A64"/>
<path d="M29.6979 18.3234H27.8142C27.2936 18.3234 26.8723 17.9017 26.8723 17.3815C26.8723 16.8614 27.2936 16.4397 27.8142 16.4397H29.6979C30.2185 16.4397 30.6398 16.8614 30.6398 17.3815C30.6398 17.9017 30.2185 18.3234 29.6979 18.3234Z" fill="#6E5A64"/>
<path d="M19.381 25.4659C19.0845 25.4659 18.8641 25.7369 18.9134 26.0293C19.2194 27.8427 20.9794 29.2333 23.1047 29.2333C25.23 29.2333 26.99 27.8427 27.296 26.0293C27.3453 25.7369 27.1249 25.4659 26.8284 25.4659H19.381Z" fill="white"/>
<path d="M23.1047 50.3465C23.6249 50.3465 24.0466 49.9248 24.0466 49.4046C24.0466 48.8845 23.6249 48.4628 23.1047 48.4628C22.5845 48.4628 22.1628 48.8845 22.1628 49.4046C22.1628 49.9248 22.5845 50.3465 23.1047 50.3465Z" fill="#FFC350"/>
<path d="M23.1047 55.9978C23.6249 55.9978 24.0466 55.5761 24.0466 55.056C24.0466 54.5358 23.6249 54.1141 23.1047 54.1141C22.5845 54.1141 22.1628 54.5358 22.1628 55.056C22.1628 55.5761 22.5845 55.9978 23.1047 55.9978Z" fill="#FFC350"/>
<path d="M33.6575 7.02091H12.5518C9.67602 7.02091 7.47174 9.57594 7.89339 12.4206L8.9768 19.7305L11.0915 19.4692C12.0353 19.3526 12.7443 18.5508 12.7443 17.5997V12.672C12.7443 11.6315 13.5877 10.7883 14.628 10.7883H31.5815C32.6218 10.7883 33.4652 11.6315 33.4652 12.672V17.5996C33.4652 18.5507 34.1742 19.3526 35.118 19.4691L37.2327 19.7304L38.3161 12.4205C38.7376 9.57583 36.5333 7.02091 33.6575 7.02091Z" fill="#5A4650"/>
<path d="M35.7911 0.66223C35.6101 0.101339 34.9587 -0.17095 34.444 0.11616C33.4628 0.663724 31.6388 1.36961 28.7559 1.36961H19.3372C15.696 1.36961 12.7441 4.32135 12.7441 7.96267C12.7441 9.52322 14.0092 10.7883 15.5697 10.7883H30.6395C34.179 10.7883 37.7183 6.63202 35.7911 0.66223Z" fill="#64505A"/>
<path d="M8.97672 50.3466V58.8234H6.15112V53.1722C6.15112 51.6116 7.41617 50.3466 8.97672 50.3466Z" fill="#DC4655"/>
<path d="M37.2324 50.3466V58.8234H40.058V53.1722C40.058 51.6116 38.793 50.3466 37.2324 50.3466Z" fill="#DC4655"/>
<path d="M8.97681 58.8231H12.7443V41.0939L8.97681 42.202V58.8231Z" fill="#FFE17D"/>
<path d="M37.2325 58.8229H33.4651V41.0938L37.2325 42.2019V58.8229Z" fill="#FFE17D"/>
<path d="M8.97681 58.8234H10.8605V52.2303C10.8605 51.19 10.0171 50.3466 8.97681 50.3466V58.8234V58.8234Z" fill="#FFD164"/>
<path d="M37.2326 58.8234H35.3489V52.2303C35.3489 51.19 36.1923 50.3466 37.2326 50.3466V58.8234Z" fill="#FFD164"/>
<path d="M18.3509 4.65325C18.3652 5.98873 19.548 7.02113 20.8834 7.02113H33.6576C34.3353 7.02113 34.9735 7.16727 35.5511 7.42152C36.4091 5.67991 36.6623 3.35856 35.7899 0.658881C35.6096 0.100746 34.9586 -0.170968 34.4465 0.115107C33.4659 0.662902 31.6413 1.37005 28.7558 1.37005H19.3371C19.2783 1.40463 19.2117 1.44369 19.1529 1.47827C18.6436 2.41336 18.3506 3.4831 18.3506 4.62292C18.3507 4.63292 18.3508 4.64303 18.3509 4.65325Z" fill="#6E5A64"/>
</svg>
