<svg width="80" height="75" viewBox="0 0 80 75" fill="none" xmlns="http://www.w3.org/2000/svg">
<path d="M57.9311 74.4825H22.0689C20.5448 74.4825 19.3103 73.248 19.3103 71.7239C19.3103 70.1999 20.5448 68.9653 22.0689 68.9653H57.9309C59.455 68.9653 60.6895 70.1999 60.6895 71.7239C60.6897 73.248 59.4551 74.4825 57.9311 74.4825Z" fill="#E7ECED"/>
<path d="M46.8965 56.5517H33.1033C33.1033 62.6511 30.9268 68.9655 24.8274 68.9655H55.1722C49.073 68.9655 46.8965 62.6511 46.8965 56.5517Z" fill="#AFB6BB"/>
<path d="M68.9655 0H11.0345H4.13938C1.85375 0 0 1.85375 0 4.13937V46.8966H11.0345H31.7242H48.2759H68.9656H80V4.13937C80 1.85391 78.1462 0 75.8606 0H68.9655V0Z" fill="#AFB6BB"/>
<path d="M75.8606 57.931H4.13938C1.85375 57.931 0 56.0771 0 53.7916V46.8965H80V53.7916C80 56.0771 78.1462 57.931 75.8606 57.931Z" fill="#E7ECED"/>
<path d="M44.138 53.7929H35.862C35.1006 53.7929 34.4827 53.175 34.4827 52.4136C34.4827 51.6521 35.1006 51.0342 35.862 51.0342H44.138C44.8994 51.0342 45.5173 51.6521 45.5173 52.4136C45.5172 53.175 44.8994 53.7929 44.138 53.7929Z" fill="#AFB6BB"/>
<path d="M74.4826 5.51709H5.51709V46.8965H74.4826V5.51709Z" fill="#28384C"/>
<path d="M39.9999 41.379C49.931 36.8136 52.4137 28.775 52.4137 17.9307L39.9999 11.0342L27.5862 17.9307C27.5862 28.7748 30.0688 36.8134 39.9999 41.379Z" fill="#EBBA16"/>
<path d="M35.8634 31.7244C35.3766 31.7244 34.9062 31.4664 34.6551 31.0113C32.9366 27.8981 31.9517 24.4541 31.7269 20.7741C31.6937 20.2223 31.9917 19.7038 32.4869 19.4555L38.0041 16.6969C38.6841 16.3548 39.513 16.632 39.8552 17.3134C40.1958 17.9948 39.92 18.8238 39.2386 19.1645L34.5545 21.5066C34.8483 24.4348 35.6939 27.1797 37.0717 29.6777C37.44 30.3439 37.1972 31.1839 36.5311 31.5508C36.3172 31.6692 36.0883 31.7244 35.8634 31.7244Z" fill="#FFDC7B"/>
<path d="M66.2069 41.379H60.6897C59.9283 41.379 59.3103 40.761 59.3103 39.9996V34.4824C59.3103 33.721 59.9283 33.103 60.6897 33.103H66.2069C66.9683 33.103 67.5862 33.721 67.5862 34.4824V39.9996C67.5862 40.761 66.9683 41.379 66.2069 41.379Z" fill="#25AE88"/>
<path d="M66.2069 19.3101H60.6897C59.9283 19.3101 59.3103 18.6921 59.3103 17.9307V12.4136C59.3103 11.6521 59.9283 11.0342 60.6897 11.0342H66.2069C66.9683 11.0342 67.5862 11.6521 67.5862 12.4136V17.9307C67.5862 18.6923 66.9683 19.3101 66.2069 19.3101Z" fill="#ED8A19"/>
<path d="M66.2069 24.8276H60.6897C59.9283 24.8276 59.3103 24.2096 59.3103 23.4482C59.3103 22.6868 59.9283 22.0688 60.6897 22.0688H66.2069C66.9683 22.0688 67.5862 22.6868 67.5862 23.4482C67.5862 24.2096 66.9683 24.8276 66.2069 24.8276Z" fill="#366DB6"/>
<path d="M66.2069 30.3447H60.6897C59.9283 30.3447 59.3103 29.7267 59.3103 28.9653C59.3103 28.2039 59.9283 27.5859 60.6897 27.5859H66.2069C66.9683 27.5859 67.5862 28.2039 67.5862 28.9653C67.5862 29.7267 66.9683 30.3447 66.2069 30.3447Z" fill="#DD352E"/>
<path d="M19.3104 41.379H13.7932C13.0318 41.379 12.4138 40.761 12.4138 39.9996V34.4824C12.4138 33.721 13.0318 33.103 13.7932 33.103H19.3104C20.0718 33.103 20.6898 33.721 20.6898 34.4824V39.9996C20.6898 40.761 20.0718 41.379 19.3104 41.379Z" fill="#75348B"/>
<path d="M19.3104 19.3101H13.7932C13.0318 19.3101 12.4138 18.6921 12.4138 17.9307V12.4136C12.4138 11.6521 13.0318 11.0342 13.7932 11.0342H19.3104C20.0718 11.0342 20.6898 11.6521 20.6898 12.4136V17.9307C20.6898 18.6923 20.0718 19.3101 19.3104 19.3101Z" fill="#ED8A19"/>
<path d="M19.3104 24.8276H13.7932C13.0318 24.8276 12.4138 24.2096 12.4138 23.4482C12.4138 22.6868 13.0318 22.0688 13.7932 22.0688H19.3104C20.0718 22.0688 20.6898 22.6868 20.6898 23.4482C20.6898 24.2096 20.0718 24.8276 19.3104 24.8276Z" fill="#366DB6"/>
<path d="M19.3104 30.3447H13.7932C13.0318 30.3447 12.4138 29.7267 12.4138 28.9653C12.4138 28.2039 13.0318 27.5859 13.7932 27.5859H19.3104C20.0718 27.5859 20.6898 28.2039 20.6898 28.9653C20.6898 29.7267 20.0718 30.3447 19.3104 30.3447Z" fill="#DD352E"/>
</svg>
