<svg width="81" height="80" viewBox="0 0 81 80" fill="none" xmlns="http://www.w3.org/2000/svg">
<path d="M28.2102 41.9346V77.2415C28.2102 77.9731 27.9225 78.6748 27.4103 79.1921C26.8981 79.7095 26.2035 80.0001 25.4792 80.0001H3.63093C2.90662 80.0001 2.21197 79.7095 1.6998 79.1921C1.18764 78.6748 0.899902 77.9731 0.899902 77.2415V41.9346C0.900276 39.179 1.51409 36.4587 2.69592 33.9751C3.87776 31.4914 5.59735 29.308 7.72748 27.5864L9.09299 5.51747H20.0171L21.3826 27.5864C23.512 29.3087 25.2311 31.4923 26.4128 33.9757C27.5946 36.4592 28.2088 39.1792 28.2102 41.9346Z" fill="#7EB457"/>
<path d="M28.2102 41.9346V77.2414C28.2102 77.973 27.9225 78.6747 27.4103 79.192C26.8981 79.7094 26.2035 80 25.4792 80H3.63093C2.90662 80 2.21197 79.7094 1.6998 79.192C1.18764 78.6747 0.899902 77.973 0.899902 77.2414V58.407C10.2486 53.0139 18.964 45.0242 26.2729 33.688C27.5467 36.2466 28.2102 39.0707 28.2102 41.9346V41.9346Z" fill="#79AD54"/>
<path d="M20.0171 1.37931V5.51723H9.09302V1.37931C9.09302 1.01349 9.23688 0.66266 9.49297 0.40399C9.74905 0.145319 10.0964 0 10.4585 0H18.6516C19.0138 0 19.3611 0.145319 19.6172 0.40399C19.8733 0.66266 20.0171 1.01349 20.0171 1.37931Z" fill="#DBDBD9"/>
<path d="M20.017 9.65527H14.555C13.8008 9.65527 13.1895 10.2728 13.1895 11.0346C13.1895 11.7964 13.8008 12.4139 14.555 12.4139H20.017C20.7712 12.4139 21.3825 11.7964 21.3825 11.0346C21.3825 10.2728 20.7712 9.65527 20.017 9.65527Z" fill="#5F9548"/>
<path d="M0.899902 41.3793H28.2102V68.9654H0.899902V41.3793Z" fill="#DBDBD9"/>
<path d="M28.2102 41.3793V68.9654H0.899902V58.4068C7.97327 54.3258 14.6848 48.7586 20.6982 41.3793H28.2102Z" fill="#D6D6D4"/>
<path d="M4.99658 45.5171H7.72761V48.2757H4.99658V45.5171Z" fill="#EBEBE9"/>
<path d="M4.99658 51.0342H7.72761V64.8273H4.99658V51.0342Z" fill="#EBEBE9"/>
<path d="M20.0172 1.37931V5.51723H11.9692C14.2357 3.81057 16.3988 1.96819 18.4469 0H18.6517C19.0139 0 19.3612 0.145319 19.6173 0.40399C19.8734 0.66266 20.0172 1.01349 20.0172 1.37931Z" fill="#D6D6D4"/>
<path d="M71.0917 44.6157C70.9659 44.6157 70.8417 44.6188 70.719 44.6251C65.8956 44.8219 62.0464 48.8339 62.0464 53.7526C62.0464 58.0203 64.9444 61.6062 68.8626 62.6089C69.5745 62.7917 70.3216 62.8893 71.0917 62.8893C76.0869 62.8893 80.1371 58.7982 80.1371 53.7524C80.1371 48.7067 76.0869 44.6157 71.0917 44.6157ZM71.0917 58.6277C70.8232 58.6277 70.5594 58.606 70.3032 58.5626C68.0127 58.183 66.2652 56.1746 66.2652 53.7524C66.2652 51.1862 68.2275 49.0833 70.7189 48.8912C70.8416 48.8818 70.9659 48.8772 71.0916 48.8772C73.7579 48.8772 75.9181 51.0591 75.9181 53.7524C75.9182 56.4458 73.7581 58.6277 71.0917 58.6277Z" fill="#D1E4EF"/>
<path d="M66.2652 53.7525C66.2652 56.1746 68.0127 58.183 70.3032 58.5626C69.9887 59.9852 69.5008 61.3427 68.8626 62.6088C64.9444 61.6062 62.0464 58.0202 62.0464 53.7525C62.0464 48.8338 65.8956 44.8219 70.719 44.625V48.8912C68.2275 49.0833 66.2652 51.1863 66.2652 53.7525Z" fill="#B9C6CE"/>
<path d="M68.3837 43.2827V54.5631C68.3837 64.1407 60.7894 72.0561 51.3076 72.1245C49.2972 72.1385 47.3656 71.8041 45.5696 71.1775C39.7389 69.1468 35.3269 64.037 34.2414 57.7713C34.071 56.7914 33.9819 55.7823 33.9819 54.7517V43.2827C33.9819 42.5902 34.5384 42.0293 35.224 42.0293H67.1427C67.8284 42.0293 68.3837 42.5902 68.3837 43.2827Z" fill="#D1E4EF"/>
<path d="M68.3841 51.1704V54.7516C68.3841 64.3471 60.6825 72.1249 51.1831 72.1249C41.6836 72.1249 33.9819 64.3472 33.9819 54.7516V51.1704C33.9819 60.7658 41.6835 68.5452 51.1829 68.5452C60.6824 68.5452 68.3841 60.7658 68.3841 51.1704Z" fill="#B9C6CE"/>
<path d="M64.94 75.269H37.4248V79.8398H64.94V75.269Z" fill="#B9C6CE"/>
<path d="M22.8362 72.4168C22.8362 73.0134 23.2561 73.5256 23.8363 73.637L37.3755 76.2346H64.9903L78.5295 73.637C79.1097 73.5257 79.5296 73.0134 79.5296 72.4168C79.5296 71.7309 78.9792 71.1748 78.3 71.1748H24.0657C23.3866 71.1749 22.8362 71.7309 22.8362 72.4168Z" fill="#D1E4EF"/>
<path d="M68.3832 44.8974H33.9814V46.7964H68.3832V44.8974Z" fill="#B9C6CE"/>
<path d="M57.6602 21.6251C57.6602 19.3747 56.5324 17.3145 54.6432 16.1138C54.2039 15.8344 53.6232 15.9679 53.347 16.4118C53.0704 16.8557 53.2026 17.4419 53.6419 17.7212C54.9807 18.5721 55.78 20.0314 55.78 21.6251C55.78 23.2187 54.9807 24.6781 53.6419 25.5289C53.0672 25.8931 53.0672 26.7709 53.6419 27.1363C54.9807 27.9873 55.78 29.4466 55.78 31.0403C55.78 32.6338 54.9807 34.0933 53.6419 34.9441C53.2025 35.2234 53.0704 35.8096 53.347 36.2535C53.5255 36.5403 53.8311 36.6975 54.1434 36.6975C54.3146 36.6975 54.4878 36.6503 54.6432 36.5515C56.5324 35.3509 57.6602 33.2905 57.6602 31.0403C57.6602 29.2323 56.931 27.548 55.6651 26.3327C56.931 25.1173 57.6602 23.4331 57.6602 21.6251Z" fill="#B9C6CE"/>
<path d="M61.2589 25.5288C60.8196 25.2495 60.239 25.3829 59.9626 25.8267C59.6861 26.2705 59.8183 26.8568 60.2577 27.1361C61.5963 27.987 62.3957 29.4465 62.3957 31.0401C62.3957 32.6336 61.5963 34.0931 60.2577 34.944C59.8183 35.2233 59.6862 35.8095 59.9626 36.2534C60.1412 36.5402 60.4468 36.6974 60.7591 36.6974C60.9303 36.6974 61.1034 36.6502 61.2589 36.5514C63.1479 35.3508 64.2757 33.2904 64.2757 31.0402C64.2757 28.7898 63.1479 26.7294 61.2589 25.5288Z" fill="#B9C6CE"/>
<path d="M47.486 25.5287C47.0467 25.2496 46.466 25.3829 46.1897 25.8268C45.9132 26.2706 46.0454 26.8568 46.4847 27.1362C47.8234 27.9871 48.6227 29.4464 48.6227 31.0401C48.6227 32.6337 47.8234 34.0931 46.4847 34.9439C46.0452 35.2232 45.9132 35.8094 46.1897 36.2533C46.3683 36.5401 46.6739 36.6973 46.9862 36.6973C47.1574 36.6973 47.3305 36.6501 47.486 36.5513C49.3751 35.3507 50.5029 33.2903 50.5029 31.0401C50.5029 28.7897 49.3751 26.7295 47.486 25.5287Z" fill="#B9C6CE"/>
</svg>
