<svg width="81" height="80" viewBox="0 0 81 80" fill="none" xmlns="http://www.w3.org/2000/svg">
<path d="M80.3843 78.3708L68.8562 50.4635C68.6749 50.0248 68.2496 49.739 67.7779 49.739H13.1963C12.7246 49.739 12.2991 50.0249 12.118 50.4635L0.589763 78.3708C0.439606 78.734 0.479606 79.1488 0.696481 79.476C0.9132 79.8033 1.27773 79.9999 1.6682 79.9999H79.306C79.6963 79.9999 80.061 79.8032 80.2777 79.476C80.4945 79.149 80.5343 78.7341 80.3843 78.3708Z" fill="#A8EEFC"/>
<path d="M75.5872 79.9999H79.306C79.6963 79.9999 80.061 79.8032 80.2777 79.476C80.4944 79.149 80.5344 78.7341 80.3844 78.3708L68.8563 50.4635C68.675 50.0248 68.2497 49.739 67.778 49.739H63.0869L75.5872 79.9999Z" fill="#A6E7F0"/>
<path d="M19.7319 60.2641L23.7099 49.7129H13.1225C12.6508 49.7129 12.2253 49.9988 12.0442 50.4374L7.98486 60.2641H19.7319Z" fill="#80D261"/>
<path d="M67.704 49.7129H30.9421L41.6645 59.0627H72.3454L68.7825 50.4376C68.601 49.999 68.1757 49.7129 67.704 49.7129Z" fill="#80D261"/>
<path d="M72.6208 59.7295L72.8418 60.2642L72.6208 59.7295Z" fill="#80D261"/>
<path d="M75.8904 67.6449L72.3454 59.0627H41.6643L30.9421 49.7129H23.7493H22.834L18.9528 59.0604H8.48229L6.13041 64.7535L4.93604 67.6449H15.4176L10.3249 79.9738H19.8529L28.0326 59.9465L51.621 79.9738H65.5473L51.4498 67.6449H75.8904Z" fill="#FFDB56"/>
<path d="M40.4133 0C26.5021 0 15.1846 11.4027 15.1846 25.4184C15.1846 30.2503 16.4896 35.3767 19.0638 40.6552C21.1007 44.8323 23.9349 49.1178 27.4872 53.3927C33.5141 60.645 39.4486 65.3011 39.6985 65.4959C39.9091 65.6602 40.1611 65.7419 40.4133 65.7419C40.6655 65.7419 40.9177 65.6598 41.1282 65.4959C41.3778 65.3011 47.3124 60.645 53.3394 53.3927C56.8919 49.1178 59.7261 44.8323 61.7629 40.6552C64.3371 35.3766 65.6421 30.2503 65.6421 25.4184C65.6421 11.4027 54.3246 0 40.4133 0ZM40.4133 15.7497C45.7133 15.7497 50.0099 20.0786 50.0099 25.4184C50.0099 30.7583 45.7133 35.0872 40.4133 35.0872C35.1133 35.0872 30.8168 30.7583 30.8168 25.4184C30.8168 20.0786 35.1133 15.7497 40.4133 15.7497Z" fill="#E6646E"/>
<path d="M40.4132 0C39.583 0 38.7622 0.041875 37.9524 0.121094C50.713 1.37141 60.7204 12.2391 60.7204 25.4184C60.7204 30.2503 59.4154 35.3767 56.8412 40.6552C54.8043 44.8323 51.9701 49.1178 48.4177 53.3927C44.2843 58.3666 40.1949 62.1186 37.9524 64.0484C38.9797 64.9325 39.6199 65.4347 39.6982 65.4958C39.9088 65.66 40.1608 65.7417 40.413 65.7417C40.6652 65.7417 40.9174 65.6597 41.1279 65.4958C41.3776 65.3009 47.3121 60.6448 53.3391 53.3925C56.8916 49.1177 59.7258 44.8322 61.7626 40.655C64.3368 35.3764 65.6418 30.2502 65.6418 25.4183C65.6419 11.4027 54.3244 0 40.4132 0Z" fill="#DC4655"/>
<path d="M19.853 79.9737H51.6211L28.0327 59.9464L19.853 79.9737Z" fill="#80D261"/>
<path d="M66.8752 59.0629L70.4204 67.6451H75.8904L72.3454 59.0629H66.8752Z" fill="#FFBB24"/>
<path d="M66.8751 59.0628H72.3453L68.7823 50.4376C68.6011 49.9989 68.1758 49.7131 67.704 49.7131H63.0129L66.8751 59.0628Z" fill="#4FC122"/>
</svg>
